<svg xmlns="http://www.w3.org/2000/svg" xmlns:xlink="http://www.w3.org/1999/xlink" width="1920" zoomAndPan="magnify" viewBox="0 0 1440 959.999988" height="1280" preserveAspectRatio="xMidYMid meet" version="1.0"><defs><filter x="0%" y="0%" width="100%" height="100%" id="90f05ff48b"><feColorMatrix values="0 0 0 0 1 0 0 0 0 1 0 0 0 0 1 0 0 0 1 0" color-interpolation-filters="sRGB"/></filter><mask id="e7b3f55080"><g filter="url(#90f05ff48b)"><rect x="-144" width="1728" fill="#000000" y="-95.999999" height="1151.999986" fill-opacity="0.17"/></g></mask><clipPath id="e1afc37c1d"><path d="M 112 0.476562 L 278.640625 0.476562 L 278.640625 150 L 112 150 Z M 112 0.476562 " clip-rule="nonzero"/></clipPath><clipPath id="1287bab341"><path d="M 0 114 L 122 114 L 122 200.726562 L 0 200.726562 Z M 0 114 " clip-rule="nonzero"/></clipPath><clipPath id="65caa44063"><rect x="0" width="279" y="0" height="202"/></clipPath><mask id="f079b71db9"><g filter="url(#90f05ff48b)"><rect x="-144" width="1728" fill="#000000" y="-95.999999" height="1151.999986" fill-opacity="0.11"/></g></mask><clipPath id="61290a9227"><path d="M 0 0 L 250 0 L 250 216.71875 L 0 216.71875 Z M 0 0 " clip-rule="nonzero"/></clipPath><clipPath id="37fc5b1604"><rect x="0" width="251" y="0" height="217"/></clipPath><mask id="6172a86fee"><g filter="url(#90f05ff48b)"><rect x="-144" width="1728" fill="#000000" y="-95.999999" height="1151.999986" fill-opacity="0.18"/></g></mask><clipPath id="c20e71a496"><path d="M 0.601562 0 L 237 0 L 237 234.71875 L 0.601562 234.71875 Z M 0.601562 0 " clip-rule="nonzero"/></clipPath><clipPath id="9f40f50251"><rect x="0" width="237" y="0" height="235"/></clipPath></defs><rect x="-144" width="1728" fill="#ffffff" y="-95.999999" height="1151.999986" fill-opacity="1"/><rect x="-144" width="1728" fill="#770a0a" y="-95.999999" height="1151.999986" fill-opacity="1"/><g mask="url(#e7b3f55080)"><g transform="matrix(1, 0, 0, 1, 0, 304)"><g clip-path="url(#65caa44063)"><g clip-path="url(#e1afc37c1d)"><path fill="#ff5757" d="M 278.394531 2.148438 C 278.34375 1.890625 278.167969 1.695312 277.964844 1.550781 C 277.972656 1.429688 277.972656 1.316406 277.953125 1.203125 C 277.945312 1.101562 277.914062 1.007812 277.863281 0.917969 C 277.863281 0.90625 277.863281 0.90625 277.851562 0.894531 C 277.851562 0.90625 277.851562 0.90625 277.851562 0.917969 C 277.78125 0.78125 277.667969 0.667969 277.53125 0.597656 C 277.542969 0.597656 277.542969 0.597656 277.554688 0.597656 C 277.542969 0.597656 277.542969 0.597656 277.53125 0.585938 C 277.441406 0.535156 277.347656 0.503906 277.246094 0.496094 C 277.082031 0.464844 276.90625 0.453125 276.722656 0.503906 C 276.679688 0.515625 276.628906 0.535156 276.589844 0.558594 C 276.414062 0.535156 276.25 0.558594 276.085938 0.617188 C 275.183594 0.976562 274.351562 1.449219 273.570312 1.972656 C 272.789062 2.1875 272.007812 2.40625 271.21875 2.609375 C 269.328125 3.09375 267.421875 3.492188 265.511719 3.871094 C 261.628906 4.652344 257.789062 5.472656 253.972656 6.5 C 250.234375 7.496094 246.464844 8.378906 242.730469 9.34375 C 238.960938 10.320312 235.277344 11.46875 231.589844 12.703125 C 227.863281 13.945312 224.117188 15.105469 220.347656 16.203125 C 216.589844 17.300781 212.792969 18.285156 209.054688 19.476562 C 201.765625 21.808594 194.816406 25 187.742188 27.90625 C 173.472656 33.777344 158.730469 38.378906 144.191406 43.53125 C 136.890625 46.121094 129.550781 48.664062 122.507812 51.890625 C 120.742188 52.699219 119.027344 53.542969 117.179688 54.128906 C 116.480469 54.34375 115.785156 54.539062 115.074219 54.683594 C 114.5 54.804688 113.875 54.886719 113.351562 55.183594 C 110.425781 56.828125 114.410156 60.75 115.710938 62.09375 C 116.78125 63.191406 117.929688 64.269531 118.78125 65.554688 C 119.789062 67.074219 120.589844 68.746094 121.492188 70.328125 C 123.308594 73.542969 125.199219 76.722656 127.28125 79.773438 C 129.304688 82.742188 131.695312 85.441406 133.617188 88.480469 C 134.449219 89.792969 135.023438 91.160156 135.648438 92.566406 C 136.058594 93.5 136.757812 94.433594 137.691406 94.917969 C 137.703125 95.171875 137.773438 95.449219 137.816406 95.675781 C 137.917969 96.242188 138.101562 96.785156 138.269531 97.339844 C 138.636719 98.589844 139.058594 99.824219 139.34375 101.105469 C 139.796875 103.046875 140.09375 105.019531 140.496094 106.96875 C 140.90625 108.941406 141.367188 110.910156 141.839844 112.863281 C 142.785156 116.761719 143.75 120.675781 144.703125 124.578125 C 145.648438 128.457031 146.636719 132.335938 147.824219 136.15625 C 149.160156 140.449219 150.585938 144.699219 151.746094 149.042969 C 152.023438 150.097656 153.738281 150.179688 153.964844 149.042969 C 153.964844 149.042969 153.964844 149.03125 153.964844 149.03125 C 155.207031 148.078125 156.273438 146.875 157.351562 145.746094 C 158.535156 144.515625 159.695312 143.273438 160.84375 142.019531 C 163.144531 139.515625 165.402344 136.957031 167.660156 134.410156 C 172.148438 129.339844 176.601562 124.207031 181.40625 119.421875 C 182.660156 118.171875 183.902344 116.898438 185.164062 115.65625 C 185.78125 115.058594 186.40625 114.472656 187.066406 113.917969 C 187.371094 113.664062 187.691406 113.40625 188.019531 113.171875 C 188.140625 113.078125 188.347656 112.921875 188.53125 112.78125 C 189.078125 112.894531 189.609375 113.007812 190.15625 113.097656 C 194.546875 113.910156 199.015625 114.414062 203.441406 115.027344 C 207.914062 115.65625 212.414062 116.21875 216.859375 117.019531 C 217.90625 117.203125 218.992188 117.347656 220.007812 117.675781 C 220.667969 117.882812 221.304688 118.160156 221.949219 118.394531 C 223.183594 118.847656 225.183594 119.578125 226.222656 118.363281 C 226.386719 118.171875 226.476562 117.945312 226.539062 117.71875 C 226.621094 117.605469 226.703125 117.492188 226.785156 117.378906 C 227.0625 117.09375 227.238281 116.652344 227.402344 116.320312 C 227.636719 115.871094 227.863281 115.417969 228.101562 114.976562 C 228.664062 113.859375 229.207031 112.738281 229.730469 111.597656 C 230.945312 109.011719 232.132812 106.425781 233.316406 103.828125 C 234.136719 102.011719 235.03125 100.234375 235.820312 98.40625 C 237.597656 94.3125 239.382812 90.214844 241.25 86.160156 C 243.4375 81.386719 245.625 76.609375 247.542969 71.722656 C 249.484375 66.816406 251.785156 62.0625 253.808594 57.1875 C 255.738281 52.535156 258.46875 48.285156 260.777344 43.820312 C 263.128906 39.261719 265.050781 34.488281 266.949219 29.722656 C 268.847656 24.960938 270.726562 20.1875 272.6875 15.441406 C 273.5 13.472656 274.339844 11.59375 275.542969 9.835938 C 276.597656 8.289062 277.726562 6.582031 278.273438 4.777344 C 278.527344 3.894531 278.582031 3.03125 278.394531 2.148438 Z M 136.707031 89.1875 C 135.15625 86.003906 132.828125 83.335938 130.742188 80.503906 C 128.617188 77.617188 126.738281 74.558594 124.941406 71.457031 C 123.238281 68.511719 121.75 65.246094 119.480469 62.679688 C 118.472656 61.539062 117.34375 60.511719 116.316406 59.382812 C 115.867188 58.890625 115.445312 58.367188 115.085938 57.804688 C 115.015625 57.691406 114.878906 57.339844 114.757812 57.113281 C 115.199219 57.042969 115.679688 56.878906 116.101562 56.777344 C 116.964844 56.582031 117.804688 56.3125 118.648438 56.035156 C 120.394531 55.460938 122.035156 54.652344 123.710938 53.921875 C 130.621094 50.882812 137.734375 48.359375 144.847656 45.84375 C 159.046875 40.820312 173.441406 36.316406 187.394531 30.636719 C 194.242188 27.855469 200.953125 24.753906 207.957031 22.375 C 211.558594 21.152344 215.234375 20.195312 218.890625 19.148438 C 222.566406 18.101562 226.230469 17.015625 229.867188 15.832031 C 233.457031 14.671875 237.019531 13.421875 240.664062 12.414062 C 244.339844 11.410156 248.046875 10.535156 251.742188 9.589844 C 255.46875 8.648438 259.144531 7.558594 262.921875 6.808594 C 264.742188 6.449219 266.546875 6.089844 268.355469 5.710938 C 266.640625 6.757812 264.832031 7.660156 263.109375 8.6875 C 258.3125 11.53125 253.671875 14.652344 248.960938 17.628906 C 239.515625 23.59375 229.679688 29.046875 220.605469 35.574219 C 211.898438 41.839844 203.859375 48.941406 195.402344 55.511719 C 186.539062 62.390625 177.371094 68.859375 168.09375 75.175781 C 163.460938 78.316406 158.851562 81.488281 154.324219 84.773438 C 152.332031 86.21875 150.339844 87.667969 148.421875 89.199219 C 146.726562 90.554688 145.042969 91.992188 143.144531 93.066406 C 142.785156 93.273438 142.40625 93.457031 142.023438 93.621094 C 142.078125 93.582031 142.128906 93.539062 142.179688 93.5 C 142.355469 93.367188 142.445312 93.191406 142.476562 93.007812 C 142.066406 93.128906 141.664062 93.253906 141.265625 93.417969 C 141.183594 93.457031 141.089844 93.488281 141.007812 93.53125 C 140.875 93.59375 140.753906 93.613281 140.609375 93.582031 C 140.515625 93.5625 140.433594 93.5 140.371094 93.425781 C 140.074219 93.488281 139.789062 93.550781 139.488281 93.59375 C 139.398438 93.613281 139.304688 93.613281 139.210938 93.59375 C 139.171875 93.570312 139.128906 93.5625 139.089844 93.539062 C 139.027344 93.511719 138.976562 93.449219 138.933594 93.398438 C 138.648438 93.335938 138.378906 93.140625 138.15625 92.730469 C 137.539062 91.632812 137.261719 90.328125 136.707031 89.1875 Z M 150.617188 137.039062 C 149.386719 133.304688 148.371094 129.503906 147.4375 125.683594 C 146.492188 121.855469 145.617188 118.015625 144.652344 114.195312 C 144.160156 112.234375 143.667969 110.285156 143.214844 108.3125 C 142.773438 106.414062 142.414062 104.496094 141.984375 102.585938 C 141.613281 100.910156 141.164062 99.257812 140.566406 97.636719 C 140.414062 97.226562 140.25 96.816406 140.074219 96.382812 C 140.117188 96.382812 140.167969 96.394531 140.207031 96.40625 C 140.238281 96.40625 140.527344 96.445312 140.382812 96.425781 C 140.710938 96.476562 140.96875 96.519531 141.304688 96.4375 C 141.71875 96.332031 141.914062 96.023438 141.941406 95.6875 C 144.027344 95.183594 145.894531 94.074219 147.660156 92.792969 C 147.457031 92.699219 147.324219 92.492188 147.355469 92.257812 C 147.382812 92.011719 147.601562 91.816406 147.855469 91.816406 C 147.980469 91.816406 148.101562 91.816406 148.226562 91.816406 C 148.320312 91.703125 148.453125 91.632812 148.605469 91.632812 C 148.617188 91.632812 148.617188 91.632812 148.625 91.632812 C 148.707031 91.464844 148.894531 91.355469 149.078125 91.355469 C 149.253906 91.355469 149.4375 91.332031 149.613281 91.3125 C 150.289062 90.777344 150.96875 90.253906 151.644531 89.753906 C 156.121094 86.414062 160.730469 83.234375 165.359375 80.121094 C 174.691406 73.847656 183.933594 67.472656 192.894531 60.675781 C 201.519531 54.148438 209.671875 47.035156 218.285156 40.503906 C 227.125 33.789062 236.703125 28.039062 246.128906 22.199219 C 248.519531 20.710938 250.910156 19.210938 253.285156 17.691406 C 255.625 16.191406 257.902344 14.589844 260.296875 13.175781 C 262.503906 11.859375 264.761719 10.636719 267.050781 9.476562 C 266.496094 9.960938 265.941406 10.445312 265.378906 10.914062 C 261.742188 13.984375 258.035156 16.960938 254.640625 20.300781 C 252.894531 22.015625 251.269531 23.839844 249.546875 25.566406 C 247.769531 27.332031 245.933594 29.035156 244.074219 30.71875 C 240.390625 34.046875 236.570312 37.25 232.925781 40.617188 C 229.300781 43.972656 225.976562 47.617188 222.277344 50.894531 C 220.390625 52.566406 218.410156 54.105469 216.457031 55.707031 C 214.527344 57.289062 212.699219 58.992188 210.882812 60.707031 C 203.398438 67.792969 195.410156 74.320312 188.113281 81.601562 C 184.394531 85.308594 180.925781 89.25 177.34375 93.078125 C 173.914062 96.742188 170.390625 100.367188 166.683594 103.746094 C 165.875 104.484375 165.136719 105.273438 164.539062 106.1875 C 164.304688 106.546875 164.3125 106.957031 164.46875 107.296875 C 164.160156 107.738281 163.871094 108.191406 163.625 108.671875 C 163.082031 109.742188 162.671875 110.871094 162.292969 112 C 161.417969 114.597656 160.445312 117.144531 159.570312 119.742188 C 157.546875 125.726562 155.886719 131.855469 154.367188 137.996094 C 153.945312 139.699219 153.566406 141.421875 153.113281 143.117188 C 153.019531 143.464844 152.929688 143.804688 152.835938 144.15625 C 152.148438 141.773438 151.398438 139.410156 150.617188 137.039062 Z M 185.125 112.71875 C 183.882812 113.777344 182.742188 114.945312 181.625 116.125 C 179.273438 118.601562 176.902344 121.042969 174.601562 123.558594 C 169.847656 128.734375 165.269531 134.0625 160.546875 139.257812 C 159.210938 140.734375 157.867188 142.203125 156.5 143.652344 C 155.914062 144.277344 155.289062 144.882812 154.683594 145.507812 C 155.054688 143.609375 155.433594 141.722656 155.894531 139.832031 C 156.644531 136.804688 157.425781 133.773438 158.296875 130.777344 C 159.148438 127.820312 160.074219 124.894531 161.078125 122 C 162.023438 119.300781 163.082031 116.652344 163.984375 113.941406 C 164.375 112.769531 164.753906 111.558594 165.257812 110.4375 C 165.496094 109.90625 165.761719 109.390625 166.089844 108.898438 C 166.234375 108.683594 166.304688 108.613281 166.542969 108.394531 C 166.550781 108.386719 166.550781 108.386719 166.5625 108.375 C 166.574219 108.367188 166.59375 108.355469 166.65625 108.3125 C 166.726562 108.261719 166.777344 108.210938 166.828125 108.160156 C 173.316406 108.519531 179.519531 110.613281 185.8125 112.152344 C 185.574219 112.347656 185.351562 112.535156 185.125 112.71875 Z M 274.382812 7.097656 C 273.097656 8.769531 272.0625 10.503906 271.207031 12.433594 C 270.101562 14.941406 269.113281 17.496094 268.097656 20.042969 C 267.121094 22.476562 266.105469 24.898438 265.140625 27.332031 C 263.199219 32.1875 261.292969 37.066406 258.929688 41.746094 C 256.570312 46.425781 253.703125 50.851562 251.652344 55.6875 C 249.515625 60.707031 247.183594 65.65625 245.195312 70.738281 C 243.234375 75.726562 240.996094 80.59375 238.777344 85.472656 C 236.9375 89.515625 235.246094 93.601562 233.539062 97.707031 C 233.5 97.8125 233.335938 98.203125 233.386719 98.066406 C 233.316406 98.222656 233.253906 98.386719 233.183594 98.539062 C 232.945312 99.09375 232.710938 99.660156 232.484375 100.222656 C 231.960938 101.488281 231.550781 102.441406 231.027344 103.621094 C 229.835938 106.292969 228.632812 108.960938 227.402344 111.621094 C 226.867188 112.78125 226.46875 113.695312 225.914062 114.914062 C 225.726562 115.316406 225.542969 115.714844 225.359375 116.105469 C 225.0625 116.085938 224.761719 116.15625 224.515625 116.332031 C 224.464844 116.332031 224.363281 116.3125 224.320312 116.3125 C 224.21875 116.292969 224.105469 116.269531 224.003906 116.238281 C 223.335938 116.074219 222.6875 115.828125 222.054688 115.59375 C 220.542969 115.027344 219.023438 114.71875 217.433594 114.441406 C 213.109375 113.695312 208.746094 113.140625 204.40625 112.535156 C 200.011719 111.929688 195.574219 111.414062 191.210938 110.644531 C 187.21875 109.945312 183.328125 108.816406 179.40625 107.800781 C 175.71875 106.847656 172.003906 106.035156 168.226562 105.707031 C 169.179688 104.792969 170.269531 103.980469 171.160156 103.039062 C 173 101.105469 174.867188 99.226562 176.734375 97.328125 C 180.433594 93.550781 183.933594 89.589844 187.640625 85.808594 C 191.222656 82.15625 194.980469 78.683594 198.789062 75.277344 C 202.617188 71.859375 206.570312 68.574219 210.328125 65.070312 C 212.1875 63.347656 213.992188 61.582031 215.882812 59.886719 C 217.75 58.214844 219.753906 56.714844 221.683594 55.113281 C 225.492188 51.960938 228.839844 48.335938 232.277344 44.804688 C 235.75 41.253906 239.476562 37.96875 243.253906 34.753906 C 247 31.5625 250.757812 28.328125 254.167969 24.765625 C 257.441406 21.335938 261.023438 18.226562 264.617188 15.125 C 268.210938 12.035156 271.691406 8.84375 275.152344 5.585938 C 275.304688 5.445312 275.449219 5.289062 275.601562 5.136719 C 275.242188 5.84375 274.84375 6.492188 274.382812 7.097656 Z M 274.382812 7.097656 " fill-opacity="1" fill-rule="nonzero"/></g><g clip-path="url(#1287bab341)"><path fill="#ff5757" d="M -50.09375 168.988281 C -47.792969 172.304688 -45.164062 175.4375 -42.277344 178.289062 L -44.445312 180.476562 C -47.453125 177.488281 -50.203125 174.214844 -52.617188 170.746094 Z M -11.582031 198.957031 C -7.457031 199.984375 -3.226562 200.628906 0.984375 200.886719 L 1.167969 197.816406 C -2.855469 197.570312 -6.890625 196.957031 -10.832031 195.980469 Z M -34.660156 188.578125 C -31.171875 190.96875 -27.445312 193.0625 -23.59375 194.800781 L -22.332031 191.984375 C -26.027344 190.324219 -29.589844 188.320312 -32.925781 186.03125 Z M -63.015625 147.6875 C -62 151.8125 -60.605469 155.859375 -58.878906 159.6875 L -56.066406 158.425781 C -57.71875 154.761719 -59.054688 150.898438 -60.03125 146.945312 Z M 52.246094 133.609375 L 53.300781 130.714844 C 49.113281 129.195312 44.214844 129.894531 40.058594 132.574219 L 41.722656 135.160156 C 45.070312 133.003906 48.949219 132.417969 52.246094 133.609375 Z M -62.105469 129.503906 C -62.105469 127.277344 -62.011719 125.007812 -61.816406 122.738281 L -64.886719 122.480469 C -65.082031 124.832031 -65.183594 127.195312 -65.183594 129.503906 C -65.183594 131.394531 -65.113281 133.304688 -64.976562 135.152344 L -61.910156 134.933594 C -62.042969 133.148438 -62.105469 131.320312 -62.105469 129.503906 Z M 48.167969 161.554688 C 51.667969 161.527344 55.796875 160.714844 60.796875 159.082031 L 59.84375 156.15625 C 55.148438 157.695312 51.320312 158.445312 48.148438 158.476562 Z M 78.074219 148.683594 C 75.4375 149.882812 73.289062 150.839844 71.308594 151.699219 L 72.53125 154.523438 C 74.535156 153.660156 76.699219 152.6875 79.347656 151.484375 C 80.835938 150.808594 82.375 150.027344 83.925781 149.175781 L 82.4375 146.484375 C 80.960938 147.296875 79.492188 148.035156 78.074219 148.683594 Z M 92.683594 139.792969 L 94.523438 142.265625 C 97.695312 139.902344 100.96875 137.214844 104.253906 134.277344 L 102.203125 131.976562 C 98.988281 134.851562 95.785156 137.480469 92.683594 139.792969 Z M 59.820312 141.496094 C 61.390625 144.875 62.265625 148.835938 62.355469 152.941406 L 65.4375 152.871094 C 65.335938 148.332031 64.359375 143.949219 62.613281 140.191406 Z M 111.113281 123.417969 L 113.320312 125.5625 C 118.496094 120.253906 121.667969 116.394531 121.800781 116.230469 L 119.417969 114.277344 C 119.378906 114.320312 116.183594 118.199219 111.113281 123.417969 Z M 55.066406 175.25 L 57.550781 177.070312 C 60.140625 173.515625 62.132812 169.667969 63.476562 165.640625 L 60.550781 164.667969 C 59.316406 168.394531 57.46875 171.957031 55.066406 175.25 Z M 36.230469 151.042969 C 35.511719 149.511719 35.152344 147.910156 35.152344 146.28125 C 35.152344 145.539062 35.222656 144.792969 35.375 144.0625 L 32.359375 143.457031 C 32.171875 144.390625 32.070312 145.34375 32.070312 146.289062 C 32.070312 148.375 32.53125 150.40625 33.4375 152.359375 C 34.144531 153.867188 34.976562 155.203125 35.910156 156.339844 L 38.28125 154.378906 C 37.523438 153.433594 36.824219 152.316406 36.230469 151.042969 Z M 19.359375 196.308594 C 17.371094 196.769531 15.328125 197.140625 13.292969 197.398438 L 13.695312 200.445312 C 15.828125 200.167969 17.976562 199.777344 20.058594 199.296875 C 22.121094 198.8125 24.144531 198.28125 26.074219 197.695312 L 25.183594 194.746094 C 23.324219 195.324219 21.363281 195.835938 19.359375 196.308594 Z M 36.515625 190.324219 L 37.882812 193.085938 C 41.84375 191.125 45.46875 188.835938 48.660156 186.289062 L 46.742188 183.886719 C 43.722656 186.289062 40.285156 188.453125 36.515625 190.324219 Z M 36.515625 190.324219 " fill-opacity="1" fill-rule="nonzero"/></g></g></g></g><g mask="url(#f079b71db9)"><g transform="matrix(1, 0, 0, 1, 0, -0.000000000000026998)"><g clip-path="url(#37fc5b1604)"><g clip-path="url(#61290a9227)"><path fill="#ff5757" d="M 244.472656 -42.300781 C 235.992188 -62.722656 218.917969 -78.84375 199.691406 -89.117188 C 152.875 -114.3125 97.105469 -107.746094 47.429688 -123.507812 C 35.726562 -127.210938 24.378906 -132.226562 14.109375 -138.914062 C 4.316406 -145.242188 -5.238281 -152.050781 -15.625 -157.304688 C -24.222656 -161.605469 -33.777344 -164.949219 -43.449219 -164.351562 C -67.453125 -163.035156 -85.007812 -140.945312 -96.59375 -122.074219 C -103.042969 -111.449219 -108.535156 -100.222656 -114.746094 -89.472656 C -120.238281 -80.039062 -126.449219 -71.203125 -135.285156 -64.753906 C -143.40625 -58.78125 -152.601562 -55.082031 -162.15625 -52.214844 C -171.828125 -49.46875 -181.5 -47.558594 -190.578125 -42.898438 C -197.503906 -39.316406 -203.832031 -34.300781 -208.132812 -27.613281 C -212.3125 -21.164062 -213.984375 -13.402344 -213.863281 -5.761719 C -213.386719 17.886719 -197.265625 37.351562 -191.773438 59.800781 C -190.21875 66.011719 -189.621094 72.339844 -190.21875 78.789062 C -190.816406 85.359375 -192.609375 91.808594 -194.519531 98.253906 C -198.101562 110.199219 -202.519531 122.140625 -202.28125 134.796875 C -201.804688 155.9375 -188.785156 174.328125 -172.066406 186.148438 C -126.210938 218.871094 -67.453125 196.660156 -18.132812 185.792969 C -4.042969 182.6875 10.289062 180.296875 24.738281 179.820312 C 38.710938 179.460938 52.445312 181.253906 65.699219 185.3125 C 90.660156 192.957031 113.46875 206.691406 138.90625 213.136719 C 157.652344 217.914062 178.671875 217.796875 196.464844 209.792969 C 204.824219 205.972656 212.347656 200.121094 217.484375 192.480469 C 223.8125 183.164062 226.199219 171.9375 226.082031 160.832031 C 225.84375 136.113281 215.332031 112.226562 217.960938 87.269531 C 220.347656 64.101562 232.648438 43.441406 241.128906 22.183594 C 245.308594 11.796875 248.652344 1.046875 249.488281 -10.179688 C 250.445312 -21.285156 248.652344 -32.152344 244.472656 -42.300781 Z M 246.503906 -10.296875 C 244.710938 12.273438 232.890625 32.695312 224.410156 53.234375 C 220.230469 63.503906 216.648438 74.132812 215.214844 85.121094 C 213.660156 96.941406 215.09375 108.644531 217.246094 120.230469 C 221.183594 142.679688 228.949219 168.476562 215.929688 189.375 C 205.542969 205.972656 185.359375 212.542969 166.730469 213.136719 C 143.441406 213.855469 122.1875 204.898438 101.167969 195.824219 C 89.582031 190.808594 78 185.792969 65.820312 182.089844 C 53.039062 178.265625 39.90625 176.476562 26.53125 176.714844 C -1.414062 177.191406 -28.523438 185.195312 -55.511719 191.644531 C -82.5 198.089844 -111.042969 203.464844 -138.628906 197.496094 C -159.410156 193.074219 -179.234375 180.65625 -190.578125 162.503906 C -196.070312 153.785156 -199.296875 143.636719 -199.296875 133.246094 C -199.296875 120.585938 -194.519531 108.527344 -190.9375 96.582031 C -187.472656 84.640625 -185.800781 72.699219 -188.429688 60.398438 C -191.175781 48.097656 -197.027344 36.875 -202.160156 25.410156 C -209.328125 9.644531 -215.773438 -10.058594 -205.503906 -26.0625 C -201.207031 -32.75 -194.636719 -37.644531 -187.59375 -40.988281 C -178.515625 -45.40625 -168.484375 -47.078125 -158.929688 -50.066406 C -149.972656 -52.8125 -141.257812 -56.632812 -133.613281 -62.246094 C -125.613281 -68.21875 -119.285156 -75.980469 -114.148438 -84.578125 C -101.609375 -105.714844 -92.054688 -129.121094 -73.785156 -146.316406 C -65.425781 -154.199219 -55.152344 -160.769531 -43.449219 -161.363281 C -33.539062 -161.960938 -23.984375 -158.378906 -15.386719 -153.839844 C -5.59375 -148.707031 3.480469 -142.378906 12.675781 -136.285156 C 56.027344 -107.863281 110.480469 -111.925781 159.085938 -100.578125 C 182.492188 -95.085938 205.183594 -85.652344 222.617188 -68.574219 C 238.261719 -53.289062 248.292969 -32.628906 246.503906 -10.296875 Z M 180.820312 -77.171875 C 143.324219 -97.476562 99.257812 -94.847656 58.535156 -104.28125 C 53.519531 -105.476562 48.621094 -106.789062 43.726562 -108.34375 C 39.546875 -109.65625 35.367188 -111.207031 31.304688 -113 C 25.214844 -115.628906 19.363281 -118.730469 13.75 -122.433594 C 4.914062 -128.167969 -3.804688 -134.257812 -13.238281 -138.675781 C -21 -142.378906 -29.480469 -145.003906 -38.195312 -144.289062 C -50.378906 -143.332031 -60.765625 -136.40625 -69.246094 -127.449219 C -75.574219 -120.761719 -80.949219 -113 -85.367188 -105.835938 C -86.5625 -103.921875 -87.636719 -102.011719 -88.710938 -100.101562 C -93.128906 -92.339844 -97.191406 -84.339844 -101.847656 -76.578125 C -102.207031 -75.980469 -102.5625 -75.382812 -102.921875 -74.785156 C -107.699219 -67.140625 -113.191406 -60.097656 -120.597656 -54.84375 C -127.882812 -49.707031 -136.121094 -46.363281 -144.601562 -43.855469 C -153.078125 -41.347656 -161.675781 -39.554688 -169.558594 -35.375 C -175.648438 -32.152344 -181.144531 -27.613281 -184.964844 -21.761719 C -188.546875 -16.03125 -190.101562 -9.222656 -189.980469 -2.535156 C -189.621094 18.722656 -175.292969 36.039062 -170.277344 56.101562 C -168.84375 61.710938 -168.363281 67.324219 -168.84375 73.058594 C -169.441406 79.027344 -170.992188 84.761719 -172.664062 90.492188 C -175.886719 101.121094 -179.828125 111.988281 -179.589844 123.214844 C -179.234375 142.082031 -167.527344 158.683594 -152.601562 169.3125 C -111.519531 198.6875 -58.976562 178.863281 -14.789062 169.191406 C -2.25 166.445312 10.527344 164.175781 23.425781 163.816406 C 35.84375 163.460938 48.144531 165.011719 59.96875 168.59375 C 62.832031 169.429688 65.582031 170.386719 68.445312 171.460938 C 87.554688 178.386719 105.585938 188.417969 125.289062 193.433594 C 130.785156 194.867188 136.636719 195.824219 142.367188 196.179688 C 154.070312 197.015625 165.894531 195.464844 176.523438 190.808594 C 184.046875 187.460938 190.734375 182.445312 195.511719 175.757812 C 201.363281 167.519531 203.871094 157.609375 203.871094 147.578125 C 203.988281 141.605469 203.273438 135.632812 202.4375 129.78125 C 199.929688 113.660156 195.269531 97.777344 196.824219 81.296875 C 197.0625 78.433594 197.539062 75.566406 198.136719 72.820312 C 201.839844 55.265625 210.914062 39.023438 217.601562 22.542969 C 221.304688 13.226562 224.289062 3.554688 225.125 -6.476562 C 225.960938 -16.269531 224.410156 -26.0625 220.589844 -35.136719 C 213.421875 -53.410156 198.136719 -67.859375 180.820312 -77.171875 Z M 222.5 -6.476562 C 220.828125 13.707031 210.316406 31.976562 202.792969 50.367188 C 198.972656 59.5625 195.867188 68.996094 194.554688 78.910156 C 193.242188 89.417969 194.433594 99.925781 196.347656 110.316406 C 199.929688 130.378906 206.855469 153.429688 195.269531 172.175781 C 185.957031 187.105469 167.921875 192.957031 151.203125 193.433594 C 130.425781 194.03125 111.316406 185.910156 92.570312 177.910156 C 82.179688 173.371094 71.789062 168.953125 60.921875 165.609375 C 49.457031 162.144531 37.753906 160.59375 25.8125 160.710938 C 0.734375 161.070312 -23.386719 168.234375 -47.628906 174.085938 C -71.875 179.9375 -97.308594 184.714844 -122.03125 179.34375 C -140.539062 175.402344 -158.214844 164.296875 -168.484375 148.054688 C -173.378906 140.171875 -176.367188 131.214844 -176.246094 121.902344 C -176.246094 110.554688 -171.949219 99.808594 -168.84375 89.058594 C -165.855469 78.671875 -164.304688 68.28125 -166.453125 57.53125 C -166.453125 57.292969 -166.574219 56.9375 -166.574219 56.695312 C -168.960938 45.710938 -174.214844 35.679688 -178.875 25.410156 C -185.203125 11.199219 -190.9375 -6.476562 -181.859375 -20.808594 C -178.039062 -26.777344 -172.066406 -31.078125 -165.738281 -34.183594 C -157.617188 -38.121094 -148.660156 -39.554688 -140.0625 -42.300781 C -132.0625 -44.808594 -124.179688 -48.152344 -117.492188 -53.171875 C -110.328125 -58.542969 -104.714844 -65.46875 -100.054688 -73.113281 C -88.710938 -91.980469 -80.234375 -113 -63.992188 -128.40625 C -56.585938 -135.449219 -47.390625 -141.300781 -36.882812 -141.898438 C -28.046875 -142.378906 -19.449219 -139.273438 -11.683594 -135.210938 C -2.96875 -130.675781 5.152344 -124.941406 13.394531 -119.566406 C 52.203125 -94.132812 100.808594 -97.714844 144.398438 -87.5625 C 165.414062 -82.667969 185.71875 -74.308594 201.363281 -59.023438 C 215.09375 -44.929688 224.171875 -26.539062 222.5 -6.476562 Z M 162.070312 -65.230469 C 128.632812 -83.382812 89.34375 -80.875 53.160156 -89.472656 C 48.742188 -90.546875 44.324219 -91.742188 40.023438 -93.175781 C 36.320312 -94.371094 32.621094 -95.804688 29.039062 -97.476562 C 23.664062 -99.863281 18.410156 -102.730469 13.394531 -105.953125 C 5.511719 -111.089844 -2.25 -116.34375 -10.847656 -120.046875 C -17.777344 -123.03125 -25.300781 -125.179688 -32.824219 -124.34375 C -43.449219 -123.152344 -52.527344 -116.941406 -59.929688 -108.9375 C -65.425781 -102.96875 -70.203125 -96.160156 -74.023438 -89.710938 C -74.976562 -88.039062 -76.054688 -86.367188 -77.007812 -84.695312 C -80.949219 -77.769531 -84.53125 -70.726562 -88.710938 -64.039062 C -89.070312 -63.558594 -89.429688 -62.960938 -89.667969 -62.484375 C -93.964844 -55.796875 -98.980469 -49.824219 -105.550781 -45.289062 C -112 -40.871094 -119.402344 -38.003906 -126.808594 -35.734375 C -134.089844 -33.464844 -141.496094 -31.792969 -148.300781 -28.210938 C -153.558594 -25.34375 -158.214844 -21.402344 -161.4375 -16.269531 C -164.542969 -11.253906 -165.855469 -5.402344 -165.738281 0.449219 C -165.5 19.199219 -152.839844 34.605469 -148.300781 52.277344 C -147.109375 57.175781 -146.628906 62.191406 -146.988281 67.324219 C -147.464844 72.582031 -148.78125 77.597656 -150.332031 82.730469 C -153.199219 92.164062 -156.660156 101.71875 -156.542969 111.75 C -156.183594 128.46875 -145.914062 143.039062 -132.660156 152.59375 C -96.355469 178.625 -49.898438 161.308594 -10.847656 152.59375 C 0.257812 150.203125 11.484375 148.171875 22.707031 147.816406 C 33.574219 147.457031 44.324219 148.769531 54.832031 151.875 C 57.339844 152.59375 59.847656 153.429688 62.238281 154.265625 C 79.074219 160.355469 94.957031 169.070312 112.273438 173.609375 C 117.167969 174.921875 122.1875 175.757812 127.320312 176.238281 C 137.589844 177.074219 147.980469 175.878906 157.414062 171.9375 C 164.101562 169.191406 169.953125 164.773438 174.253906 159.160156 C 179.746094 151.996094 182.136719 143.398438 182.492188 134.558594 C 182.730469 129.304688 182.253906 124.050781 181.539062 118.675781 C 179.507812 104.226562 175.207031 90.136719 176.523438 75.445312 C 176.761719 72.9375 177.121094 70.429688 177.597656 67.921875 C 180.703125 52.277344 188.941406 37.828125 194.792969 23.019531 C 198.019531 14.78125 200.765625 6.183594 201.480469 -2.65625 C 202.199219 -11.253906 200.882812 -19.972656 197.539062 -27.972656 C 190.851562 -44.09375 177.359375 -56.992188 162.070312 -65.230469 Z M 198.496094 -2.773438 C 197.0625 15.140625 187.746094 31.140625 181.058594 47.5 C 177.714844 55.621094 174.851562 63.980469 173.773438 72.699219 C 172.582031 82.015625 173.65625 91.328125 175.328125 100.40625 C 178.433594 118.078125 184.644531 138.5 174.371094 154.980469 C 166.25 168.117188 150.25 173.25 135.441406 173.730469 C 117.050781 174.207031 100.210938 167.042969 83.613281 159.875 C 74.417969 155.9375 65.222656 151.996094 55.667969 149.128906 C 45.636719 146.144531 35.246094 144.710938 24.617188 144.828125 C 2.527344 145.1875 -18.851562 151.515625 -40.226562 156.652344 C -61.601562 161.789062 -84.054688 165.96875 -105.90625 161.308594 C -122.269531 157.847656 -137.914062 148.054688 -146.871094 133.722656 C -151.167969 126.796875 -153.796875 118.914062 -153.675781 110.675781 C -153.675781 100.644531 -149.855469 91.089844 -147.109375 81.65625 C -144.480469 72.460938 -143.167969 63.265625 -145.078125 53.832031 C -145.078125 53.59375 -145.199219 53.351562 -145.199219 53.113281 C -147.347656 43.441406 -152.003906 34.484375 -156.066406 25.527344 C -161.675781 12.988281 -166.8125 -2.535156 -158.691406 -15.195312 C -155.230469 -20.566406 -150.09375 -24.269531 -144.480469 -27.015625 C -137.316406 -30.480469 -129.433594 -31.792969 -121.792969 -34.183594 C -114.746094 -36.449219 -107.820312 -39.4375 -101.847656 -43.855469 C -95.519531 -48.632812 -90.503906 -54.722656 -86.441406 -61.410156 C -76.410156 -78.128906 -69.007812 -96.519531 -54.675781 -110.132812 C -48.109375 -116.34375 -40.105469 -121.597656 -30.792969 -122.074219 C -22.910156 -122.554688 -15.386719 -119.6875 -8.582031 -116.105469 C -0.816406 -112.042969 6.226562 -107.027344 13.511719 -102.25 C 47.785156 -79.800781 90.660156 -82.90625 129.113281 -73.949219 C 147.621094 -69.648438 165.65625 -62.246094 179.386719 -48.75 C 191.925781 -36.691406 199.929688 -20.449219 198.496094 -2.773438 Z M 143.324219 -53.289062 C 114.066406 -69.292969 79.550781 -66.902344 47.785156 -74.664062 C 43.84375 -75.621094 40.023438 -76.695312 36.320312 -78.007812 C 33.097656 -79.085938 29.875 -80.398438 26.769531 -81.832031 C 22.109375 -83.980469 17.574219 -86.488281 13.15625 -89.355469 C 6.226562 -93.773438 -0.699219 -98.3125 -8.222656 -101.296875 C -14.3125 -103.683594 -20.761719 -105.117188 -27.328125 -104.164062 C -36.523438 -102.847656 -44.167969 -97.117188 -50.496094 -90.191406 C -55.273438 -84.9375 -59.214844 -78.964844 -62.558594 -73.351562 C -63.394531 -71.917969 -64.230469 -70.484375 -65.066406 -68.933594 C -68.53125 -62.960938 -71.632812 -56.871094 -75.457031 -51.140625 C -75.8125 -50.660156 -76.054688 -50.183594 -76.410156 -49.824219 C -80.351562 -44.09375 -84.769531 -39.199219 -90.621094 -35.375 C -96.355469 -31.675781 -102.683594 -29.285156 -109.25 -27.136719 C -115.460938 -25.105469 -121.550781 -23.671875 -127.164062 -20.449219 C -131.464844 -17.941406 -135.40625 -14.597656 -138.03125 -10.179688 C -140.539062 -6 -141.734375 -0.984375 -141.613281 3.914062 C -141.375 20.15625 -130.507812 33.53125 -126.566406 48.933594 C -125.492188 53.234375 -125.015625 57.652344 -125.492188 61.953125 C -125.851562 66.488281 -127.046875 70.910156 -128.359375 75.328125 C -130.867188 83.566406 -133.851562 91.808594 -133.734375 100.523438 C -133.496094 115.09375 -124.539062 127.753906 -113.074219 136.113281 C -81.546875 158.921875 -41.300781 143.875 -7.265625 136.351562 C 2.289062 134.203125 11.960938 132.53125 21.753906 132.171875 C 31.1875 131.8125 40.382812 132.886719 49.457031 135.515625 C 51.609375 136.113281 53.757812 136.828125 55.90625 137.546875 C 70.476562 142.679688 84.089844 150.203125 99.019531 154.265625 C 103.199219 155.457031 107.617188 156.175781 111.914062 156.652344 C 120.753906 157.488281 129.710938 156.53125 137.949219 153.429688 C 143.679688 151.160156 148.816406 147.578125 152.757812 142.800781 C 157.773438 136.828125 160.28125 129.425781 160.878906 121.660156 C 161.234375 117.125 160.996094 112.464844 160.398438 107.808594 C 158.847656 95.152344 155.027344 82.730469 155.980469 69.832031 C 156.101562 67.566406 156.460938 65.414062 156.816406 63.144531 C 159.324219 49.292969 166.609375 36.632812 171.746094 23.738281 C 174.609375 16.570312 176.878906 9.046875 177.597656 1.40625 C 178.195312 -6.117188 177.121094 -13.640625 174.253906 -20.6875 C 168.28125 -34.898438 156.578125 -46.003906 143.324219 -53.289062 Z M 174.492188 1.046875 C 173.179688 16.570312 165.058594 30.542969 159.324219 44.636719 C 156.460938 51.679688 153.953125 58.964844 152.996094 66.488281 C 151.921875 74.492188 152.875 82.613281 154.308594 90.492188 C 157.054688 105.777344 162.429688 123.453125 153.59375 137.785156 C 146.546875 149.25 132.695312 153.667969 119.917969 153.90625 C 103.914062 154.265625 89.34375 148.054688 75.015625 141.84375 C 67.011719 138.382812 59.132812 135.039062 50.773438 132.53125 C 42.054688 129.902344 33.097656 128.707031 23.902344 128.828125 C 4.796875 129.066406 -13.835938 134.679688 -32.34375 139.097656 C -50.972656 143.636719 -70.320312 147.21875 -89.308594 143.15625 C -103.519531 140.171875 -117.015625 131.695312 -124.777344 119.273438 C -128.480469 113.300781 -130.746094 106.375 -130.746094 99.332031 C -130.628906 90.613281 -127.402344 82.371094 -125.015625 74.132812 C -122.746094 66.132812 -121.550781 58.25 -123.222656 50.007812 C -123.222656 49.769531 -123.34375 49.652344 -123.34375 49.414062 C -125.253906 41.054688 -129.195312 33.289062 -132.660156 25.527344 C -137.554688 14.660156 -141.972656 1.167969 -134.925781 -9.699219 C -131.941406 -14.359375 -127.402344 -17.582031 -122.628906 -19.851562 C -116.417969 -22.835938 -109.492188 -24.03125 -103.042969 -26.0625 C -96.832031 -27.972656 -90.980469 -30.597656 -85.726562 -34.421875 C -80.234375 -38.480469 -75.933594 -43.734375 -72.351562 -49.707031 C -63.753906 -64.15625 -57.183594 -80.160156 -44.765625 -91.980469 C -39.152344 -97.355469 -32.105469 -101.894531 -24.105469 -102.371094 C -17.296875 -102.847656 -10.730469 -100.339844 -4.878906 -97.234375 C 1.808594 -93.773438 8.019531 -89.355469 14.347656 -85.292969 C 44.085938 -65.828125 81.222656 -68.457031 114.542969 -60.8125 C 130.664062 -57.109375 146.308594 -50.660156 158.25 -39.078125 C 168.757812 -28.332031 175.6875 -14.238281 174.492188 1.046875 Z M 124.574219 -41.347656 C 99.496094 -55.199219 69.640625 -52.929688 42.414062 -59.738281 C 39.070312 -60.574219 35.726562 -61.53125 32.5 -62.722656 C 29.753906 -63.679688 27.007812 -64.875 24.261719 -66.1875 C 20.320312 -68.097656 16.378906 -70.367188 12.675781 -72.753906 C 6.707031 -76.578125 0.613281 -80.277344 -5.953125 -82.546875 C -11.207031 -84.339844 -16.699219 -85.175781 -22.074219 -83.980469 C -29.71875 -82.429688 -36.046875 -77.414062 -41.300781 -71.441406 C -45.242188 -66.902344 -48.585938 -61.886719 -51.453125 -56.992188 C -52.167969 -55.796875 -52.886719 -54.484375 -53.601562 -53.289062 C -56.46875 -48.152344 -59.214844 -43.019531 -62.558594 -38.242188 C -62.796875 -37.882812 -63.035156 -37.527344 -63.394531 -37.167969 C -66.859375 -32.511719 -70.917969 -28.570312 -75.933594 -25.464844 C -80.828125 -22.480469 -86.324219 -20.449219 -91.816406 -18.65625 C -96.832031 -16.984375 -101.847656 -15.550781 -106.265625 -12.804688 C -109.730469 -10.65625 -112.835938 -7.910156 -114.984375 -4.328125 C -117.015625 -0.863281 -117.96875 3.195312 -117.851562 7.136719 C -117.730469 20.992188 -108.535156 32.335938 -105.191406 45.234375 C -104.234375 48.933594 -103.878906 52.636719 -104.234375 56.339844 C -104.59375 60.160156 -105.550781 63.863281 -106.625 67.683594 C -108.773438 74.730469 -111.28125 81.777344 -111.164062 89.179688 C -110.921875 101.480469 -103.519531 112.347656 -93.726562 119.394531 C -67.097656 138.859375 -32.824219 126.320312 -4.042969 119.871094 C 3.960938 118.078125 12.078125 116.644531 20.320312 116.289062 C 28.203125 115.929688 35.964844 116.765625 43.605469 118.914062 C 45.398438 119.394531 47.1875 119.988281 48.980469 120.585938 C 61.28125 124.765625 72.746094 131.097656 85.164062 134.679688 C 88.628906 135.632812 92.332031 136.351562 96.03125 136.828125 C 103.4375 137.664062 110.960938 137.066406 117.886719 134.558594 C 122.78125 132.769531 127.203125 129.902344 130.664062 126.199219 C 135.203125 121.304688 137.828125 115.09375 138.664062 108.644531 C 139.144531 104.703125 139.144531 100.761719 138.664062 96.703125 C 137.589844 85.714844 134.128906 75.089844 134.726562 63.980469 C 134.84375 62.070312 135.082031 60.160156 135.320312 58.25 C 137.351562 46.308594 143.5625 35.320312 148.101562 24.214844 C 150.488281 18.125 152.519531 11.796875 153.117188 5.226562 C 153.710938 -1.101562 152.757812 -7.550781 150.367188 -13.523438 C 145.710938 -25.582031 135.800781 -35.136719 124.574219 -41.347656 Z M 150.488281 4.867188 C 149.414062 18.003906 142.488281 29.828125 137.589844 41.769531 C 135.203125 47.742188 133.054688 53.832031 132.21875 60.28125 C 131.382812 67.085938 132.097656 73.894531 133.292969 80.582031 C 135.5625 93.480469 140.21875 108.527344 132.695312 120.585938 C 126.722656 130.261719 114.902344 133.960938 104.152344 134.203125 C 90.660156 134.558594 78.238281 129.1875 66.058594 123.929688 C 59.371094 121.066406 52.5625 118.199219 45.636719 116.050781 C 38.234375 113.898438 30.710938 112.824219 22.945312 112.945312 C 6.824219 113.183594 -8.9375 117.839844 -24.703125 121.660156 C -40.464844 125.484375 -56.824219 128.589844 -72.949219 125.125 C -84.890625 122.617188 -96.472656 115.453125 -103.042969 104.941406 C -106.265625 99.925781 -108.058594 94.074219 -108.058594 88.105469 C -107.9375 80.699219 -105.191406 73.65625 -103.160156 66.726562 C -101.25 59.921875 -100.296875 53.234375 -101.726562 46.308594 C -101.726562 46.1875 -101.847656 45.949219 -101.847656 45.828125 C -103.398438 38.785156 -106.742188 32.214844 -109.730469 25.648438 C -113.789062 16.570312 -117.730469 5.105469 -111.757812 -4.207031 C -109.25 -8.148438 -105.429688 -10.777344 -101.25 -12.804688 C -95.996094 -15.3125 -90.144531 -16.269531 -84.652344 -18.058594 C -79.398438 -19.730469 -74.382812 -22 -70.082031 -25.226562 C -65.425781 -28.6875 -61.839844 -33.105469 -58.738281 -38.121094 C -51.453125 -50.304688 -45.957031 -63.917969 -35.449219 -73.828125 C -30.671875 -78.367188 -24.820312 -82.308594 -18.132812 -82.667969 C -12.402344 -83.023438 -6.789062 -80.996094 -1.773438 -78.367188 C 3.839844 -75.382812 9.09375 -71.679688 14.46875 -68.21875 C 39.546875 -51.738281 71.074219 -53.886719 99.257812 -47.4375 C 112.871094 -44.332031 126.125 -38.957031 136.398438 -29.046875 C 145.59375 -20.089844 151.445312 -8.148438 150.488281 4.867188 Z M 105.824219 -29.40625 C 84.808594 -41.109375 59.847656 -38.957031 37.15625 -44.929688 C 34.410156 -45.644531 31.664062 -46.480469 28.917969 -47.558594 C 26.648438 -48.394531 24.378906 -49.46875 22.109375 -50.542969 C 18.886719 -52.214844 15.664062 -54.125 12.4375 -56.15625 C 7.421875 -59.378906 2.167969 -62.367188 -3.324219 -63.796875 C -7.746094 -64.875 -12.164062 -65.113281 -16.582031 -63.917969 C -22.671875 -62.125 -27.6875 -57.828125 -31.867188 -52.8125 C -34.972656 -49.109375 -37.597656 -44.808594 -39.988281 -40.75 C -40.585938 -39.675781 -41.183594 -38.71875 -41.777344 -37.644531 C -44.167969 -33.464844 -46.4375 -29.167969 -49.421875 -25.464844 C -49.660156 -25.105469 -49.898438 -24.867188 -50.136719 -24.628906 C -53.242188 -20.925781 -56.707031 -17.941406 -61.007812 -15.671875 C -65.1875 -13.402344 -69.722656 -11.851562 -74.140625 -10.296875 C -77.964844 -8.863281 -81.785156 -7.671875 -85.128906 -5.402344 C -87.757812 -3.609375 -90.023438 -1.339844 -91.578125 1.40625 C -93.128906 4.152344 -93.726562 7.257812 -93.726562 10.363281 C -93.726562 21.707031 -86.203125 31.023438 -83.335938 41.648438 C -82.5 44.636719 -82.261719 47.742188 -82.5 50.726562 C -82.742188 53.832031 -83.457031 56.9375 -84.414062 59.921875 C -86.085938 65.652344 -88.234375 71.503906 -88.234375 77.597656 C -88.113281 87.746094 -82.023438 96.703125 -74.023438 102.554688 C -52.167969 118.675781 -24.105469 108.527344 -0.339844 103.152344 C 6.109375 101.71875 12.796875 100.523438 19.363281 100.167969 C 25.695312 99.925781 32.023438 100.40625 38.234375 102.078125 C 39.664062 102.433594 41.21875 102.914062 42.652344 103.390625 C 52.5625 106.734375 61.878906 111.871094 72.027344 114.855469 C 74.894531 115.691406 77.761719 116.40625 80.746094 116.765625 C 86.71875 117.601562 92.808594 117.242188 98.539062 115.570312 C 102.601562 114.378906 106.183594 112.226562 109.167969 109.480469 C 113.347656 105.660156 115.976562 100.761719 116.929688 95.390625 C 117.527344 92.164062 117.648438 88.820312 117.410156 85.359375 C 116.8125 76.164062 113.824219 67.207031 114.066406 57.890625 C 114.066406 56.21875 114.183594 54.667969 114.421875 53.113281 C 115.855469 43.082031 121.230469 33.886719 124.933594 24.453125 C 126.960938 19.4375 128.515625 14.183594 128.992188 8.808594 C 129.46875 3.554688 128.753906 -1.699219 126.722656 -6.714844 C 123.140625 -16.386719 115.019531 -24.269531 105.824219 -29.40625 Z M 126.367188 8.691406 C 125.53125 19.4375 119.796875 29.230469 115.738281 39.023438 C 113.707031 43.917969 112.035156 48.933594 111.4375 54.1875 C 110.722656 59.800781 111.316406 65.296875 112.273438 70.789062 C 114.066406 81.417969 118.007812 93.597656 111.914062 103.511719 C 107.019531 111.511719 97.347656 114.496094 88.507812 114.617188 C 77.402344 114.855469 67.253906 110.4375 57.339844 106.136719 C 51.847656 103.75 46.351562 101.480469 40.621094 99.808594 C 34.648438 98.015625 28.441406 97.179688 21.992188 97.179688 C 8.734375 97.417969 -4.160156 101.242188 -16.941406 104.347656 C -29.835938 107.449219 -43.210938 109.957031 -56.46875 107.210938 C -66.261719 105.183594 -75.695312 99.332031 -81.070312 90.730469 C -83.695312 86.550781 -85.128906 81.894531 -85.128906 77 C -85.007812 70.910156 -82.742188 65.175781 -81.070312 59.445312 C -79.515625 53.949219 -78.800781 48.457031 -79.992188 42.726562 C -79.992188 42.605469 -80.113281 42.484375 -80.113281 42.246094 C -81.425781 36.394531 -84.171875 31.140625 -86.5625 25.765625 C -89.90625 18.363281 -93.128906 8.929688 -88.234375 1.40625 C -86.085938 -1.820312 -82.980469 -3.96875 -79.636719 -5.519531 C -75.335938 -7.550781 -70.558594 -8.386719 -66.023438 -9.699219 C -61.722656 -11.015625 -57.664062 -12.925781 -54.078125 -15.550781 C -50.257812 -18.417969 -47.273438 -22 -44.765625 -26.0625 C -38.792969 -35.972656 -34.375 -47.078125 -25.777344 -55.320312 C -21.957031 -59.023438 -17.179688 -62.246094 -11.683594 -62.605469 C -6.910156 -62.960938 -2.488281 -61.171875 1.691406 -59.023438 C 6.347656 -56.632812 10.648438 -53.527344 14.945312 -50.664062 C 35.484375 -37.167969 61.28125 -38.957031 84.328125 -33.703125 C 95.554688 -31.195312 106.421875 -26.777344 114.78125 -18.777344 C 122.425781 -11.730469 127.320312 -1.9375 126.367188 8.691406 Z M 87.074219 -17.464844 C 70.238281 -27.015625 49.9375 -24.988281 31.785156 -30.121094 C 29.515625 -30.71875 27.367188 -31.554688 25.214844 -32.390625 C 23.425781 -33.105469 21.515625 -34.0625 19.84375 -35.019531 C 17.335938 -36.449219 14.707031 -38.121094 12.199219 -39.675781 C 8.140625 -42.183594 3.839844 -44.453125 -0.816406 -45.050781 C -4.402344 -45.527344 -7.863281 -45.167969 -11.089844 -43.734375 C -15.625 -41.824219 -19.449219 -38.121094 -22.433594 -34.0625 C -24.703125 -31.078125 -26.730469 -27.734375 -28.523438 -24.507812 C -29 -23.671875 -29.480469 -22.835938 -29.835938 -22.121094 C -31.746094 -18.777344 -33.539062 -15.550781 -36.046875 -12.6875 C -36.285156 -12.449219 -36.40625 -12.207031 -36.644531 -12.089844 C -39.269531 -9.34375 -42.375 -7.433594 -45.71875 -5.878906 C -49.0625 -4.445312 -52.644531 -3.253906 -56.109375 -1.820312 C -58.855469 -0.746094 -61.363281 0.449219 -63.632812 2.242188 C -65.425781 3.675781 -66.859375 5.347656 -67.933594 7.375 C -68.886719 9.289062 -69.367188 11.4375 -69.367188 13.707031 C -69.484375 22.542969 -63.632812 29.828125 -61.363281 38.066406 C -60.648438 40.457031 -60.527344 42.84375 -60.648438 45.234375 C -60.765625 47.621094 -61.363281 50.007812 -62.082031 52.398438 C -63.394531 56.9375 -65.1875 61.472656 -65.066406 66.371094 C -64.945312 74.371094 -60.289062 81.417969 -54.078125 86.074219 C -37.003906 98.851562 -15.027344 91.210938 3.480469 86.910156 C 8.496094 85.835938 13.511719 84.878906 18.527344 84.523438 C 23.425781 84.285156 28.203125 84.523438 32.976562 85.714844 C 34.054688 85.957031 35.246094 86.3125 36.320312 86.671875 C 43.964844 89.058594 51.128906 93 58.773438 95.507812 C 60.921875 96.226562 63.191406 96.824219 65.460938 97.179688 C 70 98.015625 74.65625 98.015625 79.074219 97.0625 C 82.179688 96.34375 85.164062 95.03125 87.671875 93.238281 C 91.496094 90.613281 94.003906 86.910156 95.316406 82.730469 C 96.03125 80.222656 96.390625 77.476562 96.390625 74.730469 C 96.269531 67.207031 93.644531 60.039062 93.644531 52.515625 C 93.644531 51.203125 93.644531 49.890625 93.882812 48.578125 C 94.71875 40.335938 99.136719 32.933594 102.121094 25.410156 C 103.675781 21.46875 104.988281 17.289062 105.347656 13.109375 C 105.707031 9.046875 105.226562 4.867188 103.675781 0.925781 C 100.570312 -7.074219 94.242188 -13.402344 87.074219 -17.464844 Z M 102.363281 12.390625 C 101.644531 20.75 97.226562 28.394531 94.121094 36.039062 C 92.570312 39.859375 91.253906 43.800781 90.777344 47.859375 C 90.179688 52.160156 90.660156 56.457031 91.496094 60.757812 C 92.925781 68.996094 96.03125 78.550781 91.253906 86.3125 C 87.433594 92.523438 79.910156 94.792969 72.984375 94.910156 C 64.386719 95.03125 56.503906 91.566406 48.621094 88.222656 C 44.324219 86.3125 40.023438 84.640625 35.605469 83.328125 C 30.949219 82.015625 26.171875 81.296875 21.15625 81.296875 C 10.886719 81.417969 0.855469 84.402344 -9.175781 86.910156 C -19.328125 89.417969 -29.597656 91.328125 -39.988281 89.179688 C -47.628906 87.628906 -54.914062 83.089844 -59.09375 76.402344 C -61.125 73.175781 -62.320312 69.476562 -62.199219 65.652344 C -62.082031 60.875 -60.289062 56.339844 -58.976562 51.921875 C -57.78125 47.621094 -57.304688 43.320312 -58.140625 38.902344 C -58.140625 38.785156 -58.140625 38.664062 -58.257812 38.546875 C -59.214844 34.007812 -61.363281 29.828125 -63.273438 25.648438 C -65.902344 19.914062 -68.53125 12.511719 -64.707031 6.777344 C -63.035156 4.269531 -60.648438 2.597656 -58.019531 1.40625 C -54.675781 -0.148438 -50.855469 -0.746094 -47.390625 -1.820312 C -44.046875 -2.894531 -40.824219 -4.445312 -38.078125 -6.476562 C -35.210938 -8.625 -32.824219 -11.371094 -30.792969 -14.597656 C -26.136719 -22.359375 -22.671875 -30.957031 -16.105469 -37.285156 C -13.117188 -40.152344 -9.417969 -42.78125 -5.238281 -43.136719 C -1.535156 -43.378906 1.929688 -42.0625 5.152344 -40.390625 C 8.734375 -38.480469 12.078125 -36.210938 15.421875 -33.941406 C 31.425781 -23.433594 51.488281 -24.746094 69.519531 -20.6875 C 78.238281 -18.777344 86.835938 -15.433594 93.40625 -9.105469 C 99.257812 -3.371094 103.078125 4.152344 102.363281 12.390625 Z M 68.328125 -5.519531 C 55.546875 -12.925781 40.144531 -11.015625 26.410156 -15.3125 C 23.304688 -16.269531 20.199219 -17.582031 17.453125 -19.375 C 12.796875 -22.480469 7.421875 -26.660156 1.570312 -26.417969 C -4.878906 -26.179688 -9.894531 -20.6875 -13.117188 -15.550781 C -15.027344 -12.6875 -16.460938 -9.582031 -18.132812 -6.597656 C -19.566406 -3.96875 -21.121094 -1.460938 -23.507812 0.332031 C -27.925781 3.792969 -33.777344 3.792969 -38.554688 6.421875 C -42.613281 8.453125 -45.242188 12.152344 -45.363281 16.691406 C -45.601562 23.019531 -41.421875 28.394531 -39.628906 34.246094 C -38.554688 37.828125 -38.914062 41.054688 -39.988281 44.636719 C -40.941406 47.980469 -42.257812 51.324219 -42.257812 54.785156 C -42.257812 60.519531 -38.914062 65.652344 -34.496094 69.117188 C -22.3125 78.550781 -6.429688 73.296875 7.0625 70.191406 C 14.585938 68.402344 22.351562 67.324219 29.992188 69.476562 C 36.917969 71.503906 43.128906 75.328125 50.054688 77.117188 C 55.308594 78.433594 61.042969 78.550781 66.058594 76.402344 C 71.550781 74.132812 74.777344 69.238281 75.015625 63.265625 C 75.371094 56.578125 72.386719 50.128906 72.746094 43.320312 C 73.105469 36.992188 76.449219 31.261719 78.835938 25.527344 C 81.222656 19.796875 82.417969 13.585938 80.148438 7.617188 C 78 2.121094 73.460938 -2.417969 68.328125 -5.519531 Z M 78.359375 16.214844 C 77.878906 22.183594 74.535156 27.679688 72.386719 33.171875 C 71.3125 35.917969 70.355469 38.664062 70 41.648438 C 69.640625 44.753906 69.878906 47.859375 70.476562 50.84375 C 71.433594 56.695312 73.699219 63.503906 70.476562 69.117188 C 67.847656 73.535156 62.355469 75.089844 57.460938 75.207031 C 51.25 75.207031 45.636719 72.699219 40.023438 70.3125 C 33.695312 67.566406 27.367188 65.296875 20.4375 65.414062 C 5.75 65.652344 -8.582031 74.132812 -23.386719 71.148438 C -28.882812 70.074219 -34.136719 66.847656 -37.121094 62.070312 C -38.554688 59.800781 -39.390625 57.175781 -39.269531 54.429688 C -39.152344 50.964844 -37.71875 47.742188 -36.882812 44.515625 C -36.046875 41.410156 -35.6875 38.425781 -36.40625 35.203125 C -37.121094 31.859375 -38.675781 28.871094 -39.988281 25.765625 C -41.777344 21.707031 -43.808594 16.453125 -41.0625 12.273438 C -38.316406 8.09375 -32.941406 7.617188 -28.644531 6.183594 C -23.628906 4.511719 -19.566406 1.523438 -16.820312 -3.011719 C -13.476562 -8.507812 -11.089844 -14.597656 -6.429688 -19.253906 C -4.402344 -21.285156 -1.773438 -23.195312 1.210938 -23.554688 C 3.839844 -23.792969 6.347656 -22.835938 8.617188 -21.644531 C 11.125 -20.328125 13.511719 -18.65625 15.902344 -16.984375 C 27.367188 -9.460938 41.695312 -10.296875 54.59375 -7.433594 C 60.921875 -6 67.011719 -3.730469 71.789062 0.808594 C 76.089844 4.867188 78.835938 10.242188 78.359375 16.214844 Z M 78.359375 16.214844 " fill-opacity="1" fill-rule="nonzero"/></g></g></g></g><g mask="url(#6172a86fee)"><g transform="matrix(1, 0, 0, 1, 1203, -0.000000000000026998)"><g clip-path="url(#9f40f50251)"><g clip-path="url(#c20e71a496)"><path fill="#ff3131" d="M 416.25 -31.519531 C 412.546875 -42.46875 407.660156 -52.910156 401.597656 -62.675781 C 389.304688 -82.550781 372.800781 -99.558594 353.265625 -112.445312 C 345.6875 -117.496094 336.507812 -123.136719 326.570312 -127.433594 C 320.085938 -130.210938 313.265625 -132.148438 306.359375 -133.160156 C 301.394531 -134 296.257812 -134.589844 291.371094 -135.179688 C 288.171875 -135.515625 284.886719 -135.9375 281.6875 -136.359375 C 277.816406 -136.863281 273.859375 -137.535156 269.984375 -138.125 C 261.730469 -139.390625 253.226562 -140.738281 244.722656 -141.328125 C 218.871094 -143.09375 192.933594 -140.652344 167.925781 -133.917969 C 155.464844 -130.546875 143.253906 -126.167969 131.546875 -120.695312 C 128.683594 -119.347656 125.820312 -117.917969 122.960938 -116.484375 C 68.054688 -87.855469 25.28125 -35.140625 8.691406 24.644531 C -7.898438 84.429688 1.449219 151.628906 33.867188 204.511719 C 41.195312 216.46875 48.6875 222.023438 56.855469 221.6875 C 66.203125 221.265625 71.847656 213.351562 77.320312 205.6875 C 80.351562 201.480469 83.382812 197.183594 87.085938 193.984375 C 97.359375 185.144531 112.6875 185.902344 123.546875 189.605469 C 132.8125 192.722656 141.230469 198.027344 149.398438 203.078125 C 152.179688 204.761719 154.957031 206.53125 157.820312 208.214844 C 186.957031 225.394531 220.890625 234.066406 254.742188 234.066406 C 280.257812 234.152344 305.601562 229.097656 329.097656 219.078125 C 348.546875 210.742188 361.09375 200.636719 367.664062 188.003906 C 377.011719 169.902344 373.304688 148.679688 369.683594 128.136719 C 365.980469 107.082031 362.191406 85.359375 372.96875 67.757812 C 378.019531 59.421875 385.9375 53.105469 393.597656 46.960938 C 401.261719 40.8125 409.347656 34.414062 414.566406 25.738281 C 425.765625 7.636719 421.640625 -15.4375 416.25 -31.519531 Z M 413.050781 25.066406 C 407.914062 33.402344 400.082031 39.71875 392.421875 45.78125 C 384.671875 52.011719 376.671875 58.410156 371.367188 67 C 360.253906 85.105469 364.125 107.167969 367.917969 128.554688 C 371.453125 148.847656 375.15625 169.734375 366.0625 187.332031 C 359.75 199.542969 347.371094 209.476562 328.339844 217.5625 C 274.277344 240.71875 209.269531 236.59375 158.578125 206.785156 C 155.800781 205.097656 152.9375 203.332031 150.15625 201.648438 C 141.90625 196.511719 133.402344 191.207031 123.96875 188.003906 C 118.832031 186.238281 113.359375 185.394531 107.96875 185.394531 C 100.140625 185.394531 92.222656 187.417969 85.910156 192.804688 C 82.035156 196.089844 78.917969 200.550781 75.804688 204.847656 C 70.328125 212.507812 65.195312 219.75 56.6875 220.089844 C 49.195312 220.425781 42.203125 215.035156 35.214844 203.753906 C 3.132812 151.207031 -6.214844 84.429688 10.289062 25.066406 C 26.796875 -34.300781 69.234375 -86.59375 123.886719 -114.96875 C 126.664062 -116.402344 129.527344 -117.832031 132.390625 -119.179688 C 144.011719 -124.570312 156.050781 -128.949219 168.429688 -132.316406 C 193.273438 -138.96875 219.039062 -141.410156 244.636719 -139.640625 C 253.058594 -139.054688 261.5625 -137.707031 269.816406 -136.441406 C 273.6875 -135.851562 277.648438 -135.261719 281.519531 -134.675781 C 284.71875 -134.253906 288.003906 -133.832031 291.203125 -133.496094 C 296.089844 -132.90625 301.222656 -132.316406 306.191406 -131.558594 C 313.011719 -130.464844 319.664062 -128.609375 325.980469 -125.917969 C 335.832031 -121.707031 344.84375 -116.0625 352.339844 -111.097656 C 371.707031 -98.382812 387.957031 -81.539062 400.167969 -61.835938 C 406.144531 -52.152344 411.03125 -41.792969 414.652344 -31.015625 C 419.957031 -15.183594 423.996094 7.296875 413.050781 25.066406 Z M 385.347656 -59.644531 C 379.707031 -68.824219 373.054688 -77.414062 365.558594 -85.078125 C 363.199219 -87.519531 360.675781 -89.875 358.148438 -92.148438 C 352.507812 -97.117188 346.527344 -101.664062 340.210938 -105.707031 C 333.558594 -110 324.71875 -115.390625 315.117188 -119.347656 C 309.054688 -121.875 302.65625 -123.558594 296.171875 -124.484375 C 292.296875 -125.074219 288.59375 -125.496094 285.394531 -125.832031 L 281.4375 -126.253906 C 278.742188 -126.507812 275.878906 -126.84375 273.097656 -127.179688 C 269.730469 -127.601562 266.363281 -128.023438 262.996094 -128.527344 C 254.996094 -129.621094 246.828125 -130.714844 238.574219 -131.136719 C 226.535156 -131.726562 214.574219 -131.304688 202.617188 -129.957031 C 190.828125 -128.695312 179.210938 -126.507812 167.839844 -123.304688 C 156.472656 -120.191406 145.359375 -116.0625 134.664062 -110.929688 C 132.054688 -109.664062 129.441406 -108.402344 126.832031 -106.96875 C 104.9375 -95.179688 85.234375 -79.769531 68.644531 -61.332031 C 46.332031 -36.824219 30.246094 -7.269531 21.660156 24.730469 C 14.585938 51.929688 12.984375 80.304688 17.027344 108.179688 C 20.984375 136.050781 30.585938 162.742188 45.320312 186.742188 C 51.972656 197.4375 58.710938 202.488281 66.121094 202.238281 C 74.625 201.898438 79.675781 194.910156 84.644531 188.089844 C 87.339844 184.386719 90.117188 180.511719 93.488281 177.816406 C 101.316406 171.25 113.613281 169.902344 126.242188 174.027344 C 135.507812 177.058594 144.011719 182.027344 152.347656 186.828125 C 154.535156 188.089844 156.726562 189.351562 159 190.617188 C 188.640625 207.203125 221.648438 215.878906 253.480469 215.878906 C 265.183594 215.878906 276.804688 214.699219 288.257812 212.257812 C 298.613281 209.984375 308.804688 206.617188 318.488281 202.238281 C 336.171875 194.238281 347.621094 184.554688 353.433594 172.511719 C 361.347656 156.089844 357.980469 137.0625 354.695312 118.703125 C 353.433594 111.714844 352.167969 104.472656 351.496094 97.484375 C 350.0625 82.074219 352.085938 71.042969 357.980469 61.613281 C 362.695312 54.03125 370.019531 48.222656 377.011719 42.496094 C 384.167969 36.6875 391.664062 30.792969 396.546875 22.792969 C 407.074219 5.78125 403.535156 -15.605469 398.652344 -30.511719 C 395.367188 -40.785156 390.90625 -50.46875 385.347656 -59.644531 Z M 395.199219 21.699219 C 390.484375 29.359375 383.15625 35.253906 376.085938 40.980469 C 369.011719 46.707031 361.601562 52.6875 356.632812 60.515625 C 350.484375 70.285156 348.464844 81.652344 349.894531 97.398438 C 350.570312 104.472656 351.832031 111.628906 353.097656 118.703125 C 356.378906 136.808594 359.664062 155.585938 352 171.5 C 346.359375 183.121094 335.242188 192.636719 317.898438 200.46875 C 308.296875 204.761719 298.277344 208.132812 288.003906 210.320312 C 276.71875 212.761719 265.101562 213.941406 253.5625 213.941406 C 222.070312 213.941406 189.3125 205.351562 159.925781 188.933594 C 157.738281 187.667969 155.546875 186.40625 153.273438 185.144531 C 144.851562 180.34375 136.265625 175.375 126.917969 172.257812 C 122.203125 170.660156 117.316406 169.816406 112.347656 169.816406 C 104.6875 169.816406 97.695312 172.007812 92.5625 176.386719 C 89.109375 179.332031 86.246094 183.207031 83.464844 186.996094 C 78.5 193.730469 73.867188 200.132812 66.203125 200.382812 C 59.46875 200.636719 53.234375 195.835938 46.921875 185.648438 C 18.039062 138.996094 9.195312 78.875 23.425781 24.980469 C 31.933594 -6.765625 47.847656 -36.066406 69.992188 -60.402344 C 86.496094 -78.675781 106.035156 -93.917969 127.675781 -105.621094 C 130.199219 -106.96875 132.8125 -108.234375 135.421875 -109.496094 C 146.03125 -114.546875 156.980469 -118.589844 168.261719 -121.789062 C 179.546875 -124.90625 191.167969 -127.09375 202.785156 -128.359375 C 214.660156 -129.707031 226.617188 -130.042969 238.574219 -129.453125 C 246.742188 -129.03125 254.910156 -127.9375 262.828125 -126.84375 C 266.109375 -126.421875 269.5625 -125.917969 272.929688 -125.496094 C 275.710938 -125.160156 278.574219 -124.90625 281.351562 -124.570312 L 285.308594 -124.148438 C 288.507812 -123.8125 292.214844 -123.390625 296.003906 -122.800781 C 302.402344 -121.875 308.550781 -120.191406 314.527344 -117.75 C 323.960938 -113.875 332.71875 -108.484375 339.285156 -104.277344 C 345.515625 -100.234375 351.410156 -95.769531 356.96875 -90.886719 C 359.496094 -88.695312 361.9375 -86.339844 364.296875 -83.898438 C 371.707031 -76.234375 378.273438 -67.8125 383.832031 -58.636719 C 389.304688 -49.625 393.769531 -40.027344 397.050781 -30.003906 C 401.9375 -15.523438 405.472656 5.277344 395.199219 21.699219 Z M 369.09375 -56.613281 C 363.957031 -65.121094 357.8125 -73.035156 350.820312 -80.109375 C 348.632812 -82.382812 346.273438 -84.570312 343.917969 -86.59375 C 338.695312 -91.222656 333.054688 -95.347656 327.160156 -99.054688 C 318.066406 -104.78125 310.824219 -108.570312 303.667969 -111.347656 C 298.023438 -113.539062 292.046875 -115.054688 286.066406 -115.894531 C 282.363281 -116.402344 278.824219 -116.738281 276.046875 -117.074219 L 271.5 -117.496094 C 269.226562 -117.664062 266.867188 -117.917969 264.59375 -118.167969 C 261.816406 -118.421875 259.035156 -118.757812 256.257812 -119.097656 C 248.511719 -119.9375 240.511719 -120.863281 232.597656 -121.117188 C 221.480469 -121.371094 210.28125 -120.78125 199.25 -119.347656 C 188.640625 -118.085938 178.113281 -115.894531 167.757812 -112.949219 C 157.484375 -110 147.464844 -106.128906 137.78125 -101.414062 C 135.167969 -100.148438 132.894531 -98.96875 130.707031 -97.792969 C 110.664062 -86.675781 92.644531 -72.277344 77.402344 -55.265625 C 56.855469 -32.617188 42.289062 -5.164062 34.964844 24.476562 C 28.984375 48.8125 27.890625 73.988281 31.511719 98.746094 C 35.132812 123.503906 43.804688 147.164062 57.027344 168.46875 C 62.917969 177.816406 68.8125 182.363281 75.214844 182.363281 L 75.636719 182.363281 C 83.214844 182.109375 87.84375 176.046875 92.308594 170.152344 C 94.75 166.953125 97.277344 163.671875 100.222656 161.226562 C 107.128906 155.585938 118.074219 154.40625 129.359375 158.113281 C 139.125 161.226562 147.800781 165.859375 156.894531 170.660156 L 160.515625 172.597656 C 183.503906 184.722656 216.007812 197.4375 251.375 197.4375 C 261.058594 197.4375 270.742188 196.425781 280.171875 194.488281 C 289.855469 192.382812 299.289062 189.183594 308.214844 184.890625 C 324.042969 177.3125 334.570312 167.710938 339.539062 156.429688 C 346.023438 141.691406 342.90625 124.933594 339.960938 108.597656 C 338.695312 101.695312 337.347656 94.535156 336.757812 87.632812 C 335.664062 73.90625 337.6875 63.546875 343.242188 54.960938 C 347.621094 48.054688 354.273438 42.75 360.675781 37.527344 C 367.328125 32.222656 374.148438 26.664062 378.777344 19.339844 C 388.632812 3.59375 385.515625 -16.027344 381.222656 -29.753906 C 378.273438 -39.097656 374.230469 -48.109375 369.09375 -56.613281 Z M 377.347656 18.414062 C 372.96875 25.488281 366.148438 30.875 359.664062 36.179688 C 353.097656 41.402344 346.359375 46.875 341.8125 53.949219 C 336.085938 62.875 333.898438 73.652344 335.074219 87.714844 C 335.664062 94.703125 337.011719 101.863281 338.277344 108.851562 C 341.390625 125.609375 344.253906 141.4375 338.023438 155.671875 C 333.222656 166.53125 322.949219 175.878906 307.539062 183.289062 C 298.78125 187.5 289.4375 190.699219 279.921875 192.804688 C 234.28125 202.488281 190.242188 186.320312 161.355469 171.082031 L 157.820312 169.144531 C 148.980469 164.429688 139.882812 159.628906 129.949219 156.429688 C 125.738281 154.996094 121.273438 154.324219 116.8125 154.238281 C 109.992188 154.238281 103.84375 156.175781 99.296875 159.878906 C 96.179688 162.40625 93.570312 165.773438 91.128906 169.144531 C 86.667969 175.039062 82.539062 180.511719 75.71875 180.679688 C 69.742188 180.847656 64.183594 176.554688 58.542969 167.628906 C 32.4375 126.03125 24.523438 74.074219 36.648438 24.898438 C 43.890625 -4.492188 58.371094 -31.6875 78.667969 -54.089844 C 93.824219 -71.015625 111.675781 -85.246094 131.546875 -96.277344 C 133.652344 -97.453125 135.925781 -98.632812 138.539062 -99.898438 C 148.136719 -104.527344 158.074219 -108.402344 168.261719 -111.347656 C 178.453125 -114.296875 188.894531 -116.402344 199.503906 -117.664062 C 210.449219 -119.097656 221.566406 -119.683594 232.597656 -119.433594 C 240.511719 -119.179688 248.425781 -118.339844 256.175781 -117.410156 C 258.953125 -117.074219 261.730469 -116.820312 264.511719 -116.484375 C 266.785156 -116.234375 269.140625 -116.0625 271.414062 -115.8125 L 275.878906 -115.390625 C 278.574219 -115.136719 282.195312 -114.800781 285.816406 -114.210938 C 291.710938 -113.371094 297.519531 -111.9375 303.078125 -109.75 C 310.066406 -106.96875 317.222656 -103.265625 326.234375 -97.625 C 332.042969 -93.917969 337.601562 -89.875 342.738281 -85.328125 C 345.097656 -83.308594 347.371094 -81.117188 349.558594 -78.84375 C 356.464844 -71.855469 362.527344 -64.023438 367.578125 -55.6875 C 372.632812 -47.351562 376.671875 -38.511719 379.621094 -29.246094 C 383.914062 -15.859375 386.863281 3.257812 377.347656 18.414062 Z M 352.84375 -53.5 C 348.128906 -61.332031 342.570312 -68.570312 336.171875 -75.054688 C 334.148438 -77.160156 331.960938 -79.183594 329.769531 -81.035156 C 324.886719 -85.246094 319.664062 -89.035156 314.191406 -92.402344 C 307.289062 -96.78125 299.960938 -100.402344 292.382812 -103.347656 C 287.078125 -105.285156 281.519531 -106.632812 275.960938 -107.308594 C 273.269531 -107.644531 270.40625 -107.980469 266.699219 -108.234375 L 261.480469 -108.652344 C 259.710938 -108.824219 257.941406 -108.90625 256.175781 -109.074219 L 249.773438 -109.582031 C 242.195312 -110.253906 234.363281 -110.929688 226.535156 -110.929688 L 226.449219 -110.929688 C 216.261719 -110.84375 205.988281 -110.085938 195.882812 -108.570312 C 186.367188 -107.222656 176.9375 -105.203125 167.671875 -102.421875 C 158.410156 -99.644531 149.484375 -96.023438 140.894531 -91.730469 C 138.453125 -90.464844 136.433594 -89.457031 134.578125 -88.359375 C 117.148438 -78.425781 100.8125 -65.203125 86.078125 -48.953125 C 67.296875 -28.152344 54.164062 -2.890625 48.015625 24.476562 C 37.996094 68.515625 45.488281 114.492188 68.5625 150.535156 C 73.867188 158.871094 79.257812 162.742188 84.980469 162.742188 C 91.71875 162.660156 95.761719 157.4375 99.800781 152.386719 C 101.90625 149.691406 104.179688 146.914062 106.792969 144.808594 C 112.855469 140.09375 122.371094 139.164062 132.304688 142.28125 C 143.085938 145.648438 152.851562 150.28125 161.945312 154.742188 C 184.429688 165.773438 216.007812 179.078125 249.183594 179.078125 C 256.847656 179.078125 264.511719 178.320312 272.089844 176.804688 C 281.097656 174.953125 289.773438 171.921875 297.941406 167.710938 C 312.085938 160.46875 321.433594 151.292969 325.644531 140.511719 C 330.78125 127.460938 327.917969 112.808594 325.222656 98.664062 C 323.875 91.839844 322.527344 84.769531 322.109375 77.949219 C 321.265625 65.652344 323.285156 56.222656 328.589844 48.308594 C 332.632812 42.160156 338.695312 37.277344 344.507812 32.644531 C 350.570312 27.761719 356.886719 22.625 361.179688 15.972656 C 370.359375 1.570312 367.746094 -16.449219 363.957031 -28.910156 C 361.09375 -37.5 357.472656 -45.75 352.84375 -53.5 Z M 359.578125 15.128906 C 355.453125 21.613281 349.304688 26.582031 343.328125 31.382812 C 337.347656 36.179688 331.285156 41.066406 327.074219 47.464844 C 321.601562 55.71875 319.496094 65.484375 320.339844 78.117188 C 320.84375 85.019531 322.191406 92.179688 323.539062 99 C 326.316406 113.566406 329.011719 127.375 324.042969 139.921875 C 320.003906 150.28125 310.910156 159.121094 297.097656 166.195312 C 289.097656 170.324219 280.59375 173.355469 271.753906 175.207031 C 231.082031 183.625 189.988281 166.703125 162.621094 153.226562 C 153.527344 148.765625 143.675781 144.132812 132.8125 140.679688 C 129.023438 139.503906 125.0625 138.828125 121.105469 138.828125 C 115.128906 138.828125 109.738281 140.429688 105.78125 143.460938 C 103.003906 145.648438 100.730469 148.511719 98.539062 151.292969 C 94.582031 156.257812 90.960938 160.890625 85.066406 160.976562 L 84.8125 160.976562 C 79.761719 160.976562 74.878906 157.269531 69.992188 149.523438 C 47.171875 113.820312 39.761719 68.347656 49.699219 24.730469 C 55.761719 -2.300781 68.730469 -27.3125 87.253906 -47.941406 C 101.824219 -64.023438 118.074219 -77.246094 135.335938 -87.011719 C 137.191406 -88.023438 139.125 -89.117188 141.570312 -90.382812 C 150.074219 -94.675781 159 -98.210938 168.09375 -100.992188 C 177.273438 -103.769531 186.621094 -105.792969 196.050781 -107.054688 C 206.070312 -108.570312 216.175781 -109.328125 226.363281 -109.410156 L 226.449219 -109.410156 C 234.195312 -109.410156 241.941406 -108.738281 249.523438 -108.066406 L 255.835938 -107.558594 L 261.140625 -107.136719 C 262.910156 -107.054688 264.59375 -106.886719 266.363281 -106.71875 C 270.066406 -106.378906 272.847656 -106.128906 275.625 -105.792969 C 281.097656 -105.117188 286.402344 -103.769531 291.539062 -101.917969 C 299.035156 -98.96875 306.277344 -95.347656 313.097656 -91.054688 C 318.570312 -87.769531 323.707031 -83.980469 328.507812 -79.855469 C 330.695312 -78.003906 332.800781 -75.980469 334.824219 -73.960938 C 341.136719 -67.5625 346.695312 -60.488281 351.328125 -52.742188 C 355.875 -45.164062 359.496094 -36.996094 362.105469 -28.488281 C 365.8125 -16.195312 368.335938 1.234375 359.578125 15.128906 Z M 336.589844 -50.382812 C 332.382812 -57.539062 327.328125 -64.109375 321.433594 -69.917969 C 319.496094 -71.855469 317.5625 -73.625 315.457031 -75.394531 C 310.910156 -79.183594 306.109375 -82.632812 300.972656 -85.664062 C 294.570312 -89.539062 287.75 -92.738281 280.679688 -95.265625 C 275.792969 -96.949219 270.742188 -98.042969 265.605469 -98.632812 C 263.078125 -98.886719 260.382812 -99.140625 257.101562 -99.390625 C 255.078125 -99.476562 252.972656 -99.644531 250.953125 -99.726562 L 247.417969 -99.898438 L 243.457031 -100.148438 C 235.878906 -100.570312 228.050781 -101.074219 220.300781 -100.824219 C 210.953125 -100.484375 201.609375 -99.476562 192.34375 -97.875 C 183.925781 -96.527344 175.589844 -94.589844 167.421875 -91.980469 C 159.253906 -89.371094 151.421875 -86.085938 143.84375 -82.128906 C 141.652344 -80.949219 139.882812 -80.023438 138.285156 -79.097656 C 122.875 -70.003906 108.140625 -57.710938 94.664062 -42.71875 C 77.65625 -23.773438 66.121094 -0.617188 61.234375 24.390625 C 53.488281 62.789062 60.394531 102.199219 80.183594 132.511719 C 84.8125 139.585938 89.445312 143.039062 94.414062 143.039062 C 100.222656 143.039062 103.84375 138.746094 107.296875 134.617188 C 109.066406 132.34375 111.085938 130.324219 113.273438 128.472656 C 120.6875 123 131.042969 125.355469 135.167969 126.535156 C 144.769531 129.3125 154.117188 132.765625 163.292969 136.808594 C 188.640625 148.261719 216.765625 160.890625 245.816406 160.890625 C 251.878906 160.890625 257.941406 160.300781 263.921875 159.121094 C 272.171875 157.4375 280.089844 154.492188 287.5 150.449219 C 296.089844 145.648438 307.289062 137.3125 311.582031 124.515625 C 315.371094 113.144531 312.84375 100.597656 310.402344 88.558594 C 309.054688 81.820312 307.625 74.917969 307.289062 68.179688 C 306.699219 57.316406 308.71875 48.980469 313.6875 41.738281 C 317.390625 36.347656 322.78125 31.972656 328.003906 27.761719 C 333.558594 23.296875 339.285156 18.667969 343.160156 12.601562 C 351.664062 -0.53125 349.558594 -16.785156 346.359375 -28.152344 C 344 -35.816406 340.71875 -43.394531 336.589844 -50.382812 Z M 341.644531 11.84375 C 337.855469 17.65625 332.296875 22.203125 326.824219 26.664062 C 321.519531 30.960938 316.046875 35.339844 312.171875 40.980469 C 306.949219 48.558594 304.84375 57.316406 305.433594 68.515625 C 305.773438 75.335938 307.203125 82.328125 308.632812 89.148438 C 311.160156 101.609375 313.601562 113.3125 309.898438 124.261719 C 305.773438 136.472656 294.910156 144.554688 286.574219 149.1875 C 279.332031 153.226562 271.582031 156.089844 263.5 157.777344 C 228.722656 164.679688 194.28125 149.1875 163.96875 135.460938 C 154.789062 131.335938 145.359375 127.882812 135.757812 125.019531 C 132.390625 123.925781 128.855469 123.417969 125.316406 123.335938 C 120.265625 123.335938 115.800781 124.597656 112.347656 127.125 C 109.992188 128.976562 107.886719 131.167969 106.035156 133.523438 C 102.664062 137.566406 99.464844 141.355469 94.414062 141.355469 C 90.035156 141.355469 85.824219 138.15625 81.53125 131.585938 C 61.910156 101.609375 55.089844 62.707031 62.75 24.730469 C 67.636719 0.0546875 79.085938 -22.847656 95.84375 -41.542969 C 109.234375 -56.363281 123.800781 -68.488281 139.125 -77.582031 C 140.640625 -78.507812 142.410156 -79.433594 144.601562 -80.613281 C 152.09375 -84.570312 159.925781 -87.769531 167.925781 -90.382812 C 176.007812 -92.90625 184.175781 -94.84375 192.597656 -96.191406 C 201.777344 -97.792969 211.039062 -98.800781 220.386719 -99.140625 C 228.050781 -99.390625 235.796875 -98.886719 243.375 -98.464844 L 247.332031 -98.210938 L 250.867188 -98.042969 C 252.890625 -97.960938 254.996094 -97.875 257.015625 -97.707031 C 260.300781 -97.539062 262.996094 -97.285156 265.4375 -96.949219 C 270.488281 -96.445312 275.375 -95.265625 280.171875 -93.664062 C 287.078125 -91.140625 293.8125 -87.9375 300.128906 -84.148438 C 305.183594 -81.203125 309.898438 -77.835938 314.359375 -74.046875 C 316.382812 -72.359375 318.320312 -70.507812 320.253906 -68.65625 C 325.980469 -62.929688 331.035156 -56.445312 335.160156 -49.457031 C 339.285156 -42.550781 342.484375 -35.140625 344.675781 -27.394531 C 347.789062 -16.53125 349.8125 -0.785156 341.644531 11.84375 Z M 320.339844 -47.351562 C 316.632812 -53.835938 312.003906 -59.730469 306.699219 -64.949219 C 304.929688 -66.636719 303.078125 -68.320312 301.222656 -69.835938 C 297.097656 -73.289062 292.550781 -76.320312 287.921875 -78.929688 C 282.027344 -82.296875 275.792969 -85.078125 269.308594 -87.179688 C 264.847656 -88.613281 260.214844 -89.539062 255.5 -89.960938 C 253.144531 -90.214844 250.699219 -90.382812 247.753906 -90.464844 C 245.394531 -90.550781 242.953125 -90.632812 240.597656 -90.71875 L 238.070312 -90.800781 C 230.324219 -91.054688 222.238281 -91.222656 214.324219 -90.71875 C 205.820312 -90.042969 197.398438 -88.867188 189.0625 -87.097656 C 181.734375 -85.75 174.492188 -83.898438 167.421875 -81.457031 C 160.347656 -79.011719 153.527344 -75.980469 146.957031 -72.359375 C 145.527344 -71.601562 143.84375 -70.59375 142.160156 -69.582031 C 128.769531 -61.160156 115.71875 -50.046875 103.339844 -36.320312 C 88.519531 -19.902344 78.246094 1.65625 74.371094 24.390625 C 68.8125 56.980469 75.128906 89.820312 91.800781 114.492188 C 94.328125 118.199219 98.285156 123.25 103.84375 123.335938 L 104.097656 123.335938 C 108.8125 123.335938 111.929688 120.050781 114.875 116.851562 C 116.390625 115.082031 118.074219 113.484375 119.929688 112.136719 C 124.222656 109.1875 130.875 108.765625 138.199219 110.871094 L 143.421875 112.304688 C 150.664062 114.15625 157.738281 116.515625 164.726562 119.207031 C 169.527344 121.144531 174.492188 123.335938 179.292969 125.355469 C 199.585938 134.113281 220.46875 143.125 242.113281 143.125 C 246.742188 143.125 251.289062 142.703125 255.835938 141.859375 C 263.414062 140.34375 270.574219 137.566406 277.140625 133.523438 C 284.71875 128.976562 294.402344 120.976562 297.605469 108.851562 C 300.214844 99.167969 297.941406 89.230469 295.667969 78.621094 C 294.234375 72.136719 292.71875 65.402344 292.46875 58.75 C 292.128906 49.484375 294.234375 41.824219 298.867188 35.421875 C 302.234375 30.707031 306.949219 26.835938 311.582031 23.128906 C 316.632812 19.085938 321.769531 14.875 325.390625 9.402344 C 333.222656 -2.46875 331.625 -16.953125 328.929688 -27.140625 C 326.90625 -34.132812 324.042969 -40.953125 320.339844 -47.351562 Z M 323.792969 8.476562 C 320.339844 13.699219 315.285156 17.824219 310.402344 21.78125 C 305.773438 25.570312 300.886719 29.445312 297.433594 34.328125 C 292.550781 41.066406 290.363281 49.066406 290.699219 58.664062 C 290.953125 65.402344 292.46875 72.222656 293.898438 78.875 C 296.171875 89.230469 298.363281 99 295.917969 108.261719 C 292.804688 119.796875 283.457031 127.460938 276.214844 131.925781 C 269.816406 135.882812 262.742188 138.578125 255.417969 140.007812 C 229.394531 144.976562 204.21875 134.113281 179.882812 123.671875 C 175.082031 121.652344 170.113281 119.460938 165.316406 117.523438 C 158.324219 114.832031 151.167969 112.472656 143.84375 110.621094 L 138.707031 109.105469 C 130.957031 106.914062 123.800781 107.421875 119.085938 110.621094 C 117.148438 112.050781 115.296875 113.734375 113.695312 115.589844 C 110.832031 118.703125 108.054688 121.652344 103.929688 121.566406 C 100.308594 121.480469 96.9375 118.871094 93.234375 113.484375 C 76.730469 89.230469 70.5 56.8125 75.972656 24.644531 C 79.84375 2.160156 89.949219 -19.058594 104.519531 -35.308594 C 116.8125 -48.953125 129.695312 -59.984375 143 -68.234375 C 144.683594 -69.246094 146.367188 -70.171875 147.714844 -70.929688 C 154.199219 -74.464844 160.9375 -77.496094 167.839844 -79.855469 C 174.832031 -82.214844 181.988281 -84.066406 189.3125 -85.414062 C 197.566406 -87.097656 205.988281 -88.277344 214.40625 -88.949219 C 222.238281 -89.457031 229.902344 -89.285156 238.070312 -89.035156 L 240.597656 -88.949219 C 242.953125 -88.867188 245.3125 -88.867188 247.753906 -88.695312 C 250.699219 -88.613281 253.144531 -88.445312 255.417969 -88.191406 C 259.964844 -87.769531 264.511719 -86.84375 268.804688 -85.496094 C 275.203125 -83.390625 281.351562 -80.699219 287.160156 -77.328125 C 291.792969 -74.71875 296.171875 -71.773438 300.214844 -68.402344 C 302.066406 -66.886719 303.917969 -65.203125 305.601562 -63.605469 C 310.824219 -58.46875 315.285156 -52.65625 318.90625 -46.339844 C 322.527344 -40.109375 325.308594 -33.457031 327.160156 -26.46875 C 329.769531 -16.867188 331.285156 -2.804688 323.792969 8.476562 Z M 304.085938 -44.234375 C 300.804688 -49.960938 296.761719 -55.265625 292.046875 -59.8125 C 290.445312 -61.332031 288.761719 -62.847656 286.992188 -64.191406 C 283.203125 -67.222656 279.164062 -69.917969 274.867188 -72.191406 C 269.480469 -75.140625 263.753906 -77.414062 257.859375 -79.183594 C 253.730469 -80.277344 249.523438 -81.035156 245.3125 -81.285156 C 243.121094 -81.457031 240.847656 -81.539062 238.320312 -81.625 C 235.796875 -81.707031 233.015625 -81.625 230.324219 -81.625 C 222.914062 -81.625 215.503906 -81.285156 208.175781 -80.527344 C 200.597656 -79.519531 193.019531 -78.171875 185.523438 -76.320312 C 179.292969 -74.972656 173.144531 -73.203125 167.167969 -70.929688 C 161.1875 -68.65625 155.464844 -65.878906 149.90625 -62.675781 C 148.640625 -61.917969 147.210938 -61.078125 145.863281 -60.152344 C 134.328125 -52.488281 123.210938 -42.636719 111.84375 -29.921875 C 98.707031 -15.269531 90.035156 4.015625 87.339844 24.476562 C 83.804688 51.589844 89.445312 77.191406 103.253906 96.640625 C 105.359375 99.589844 108.644531 103.546875 113.105469 103.800781 C 117.066406 104.050781 119.675781 101.609375 122.203125 99.167969 C 123.464844 97.90625 124.8125 96.808594 126.328125 95.800781 C 131.042969 93.019531 137.527344 94.199219 140.980469 95.125 C 144.347656 96.050781 147.714844 96.808594 150.914062 97.484375 C 155.96875 98.492188 160.9375 99.757812 165.90625 101.441406 C 173.316406 104.050781 180.808594 107.421875 188.050781 110.703125 C 203.882812 117.863281 220.21875 125.1875 237.3125 125.1875 C 240.679688 125.1875 244.046875 124.851562 247.417969 124.261719 C 254.238281 123 260.804688 120.304688 266.53125 116.347656 C 275.792969 110.113281 281.6875 101.863281 283.371094 92.9375 C 284.886719 84.9375 282.867188 76.851562 280.679688 68.347656 C 279.078125 62.03125 277.476562 55.546875 277.394531 49.148438 C 277.308594 41.316406 279.414062 34.664062 283.792969 28.9375 C 286.824219 24.980469 290.867188 21.613281 294.824219 18.414062 C 299.289062 14.792969 304.003906 11.003906 307.203125 6.203125 C 314.359375 -4.40625 313.265625 -17.207031 311.160156 -26.132812 C 309.644531 -32.53125 307.289062 -38.59375 304.085938 -44.234375 Z M 305.941406 5.191406 C 302.824219 9.824219 298.277344 13.53125 293.898438 17.066406 C 289.855469 20.351562 285.730469 23.804688 282.53125 27.84375 C 277.898438 33.90625 275.710938 40.898438 275.792969 49.066406 C 275.878906 55.71875 277.5625 62.285156 279.164062 68.683594 C 281.269531 77.105469 283.203125 84.9375 281.773438 92.597656 C 280.171875 101.019531 274.53125 108.9375 265.6875 114.914062 C 260.132812 118.703125 253.816406 121.3125 247.25 122.578125 C 226.953125 126.28125 207.585938 117.523438 188.894531 109.105469 C 181.652344 105.820312 174.074219 102.367188 166.664062 99.839844 C 161.695312 98.242188 156.640625 96.894531 151.503906 95.882812 C 148.304688 95.210938 144.9375 94.453125 141.652344 93.527344 C 137.949219 92.515625 130.957031 91.335938 125.738281 94.367188 C 124.136719 95.378906 122.621094 96.558594 121.359375 97.90625 C 119 100.179688 116.726562 102.285156 113.445312 102.03125 C 109.738281 101.777344 106.707031 98.242188 104.855469 95.546875 C 91.296875 76.433594 85.824219 51.253906 89.277344 24.5625 C 91.886719 4.433594 100.476562 -14.59375 113.359375 -28.996094 C 124.644531 -41.542969 135.589844 -51.308594 147.042969 -58.886719 C 148.390625 -59.8125 149.738281 -60.570312 151 -61.332031 C 156.390625 -64.53125 162.117188 -67.222656 168.007812 -69.5 C 173.902344 -71.6875 179.96875 -73.457031 186.113281 -74.804688 C 193.523438 -76.65625 201.019531 -78.003906 208.511719 -79.011719 C 215.839844 -79.769531 223.164062 -80.109375 230.492188 -80.109375 C 233.1875 -80.109375 235.796875 -80.109375 238.40625 -80.109375 C 241.015625 -80.109375 243.207031 -79.941406 245.3125 -79.769531 C 249.4375 -79.519531 253.480469 -78.761719 257.519531 -77.667969 C 263.246094 -75.980469 268.804688 -73.707031 274.109375 -70.84375 C 278.320312 -68.65625 282.363281 -66.046875 286.066406 -63.015625 C 287.75 -61.667969 289.4375 -60.234375 290.953125 -58.71875 C 300.128906 -49.710938 306.699219 -38.339844 309.730469 -25.878906 C 311.75 -17.207031 312.761719 -4.828125 305.941406 5.191406 Z M 287.835938 -41.203125 C 285.058594 -46.257812 281.519531 -50.886719 277.394531 -54.847656 C 275.960938 -56.195312 274.445312 -57.457031 272.847656 -58.71875 C 269.394531 -61.414062 265.6875 -63.6875 261.816406 -65.539062 C 256.933594 -67.984375 251.710938 -69.835938 246.40625 -71.183594 C 242.699219 -72.023438 238.996094 -72.53125 235.207031 -72.699219 C 233.269531 -72.78125 231.164062 -72.78125 228.976562 -72.78125 C 226.871094 -72.78125 224.597656 -72.699219 221.816406 -72.53125 C 215.164062 -72.191406 208.597656 -71.519531 202.113281 -70.425781 C 195.375 -69.246094 188.808594 -67.476562 182.15625 -65.539062 C 177.019531 -64.191406 172.050781 -62.425781 167.082031 -60.402344 C 162.199219 -58.296875 157.484375 -55.855469 153.019531 -52.992188 C 151.925781 -52.320312 150.832031 -51.5625 149.738281 -50.804688 C 140.304688 -43.984375 130.789062 -35.140625 120.601562 -23.773438 C 109.066406 -10.890625 101.90625 6.289062 100.644531 24.390625 C 99.128906 45.277344 104.265625 64.472656 114.960938 78.621094 C 116.644531 80.8125 119.253906 83.757812 122.621094 84.09375 C 125.738281 84.429688 127.84375 82.914062 129.863281 81.484375 C 130.875 80.726562 131.886719 80.054688 132.980469 79.546875 C 136.347656 78.03125 140.894531 78.621094 144.09375 79.464844 C 147.714844 80.304688 151.421875 80.980469 155.125 81.398438 C 159.253906 81.820312 163.378906 82.664062 167.421875 83.671875 C 176.007812 86.199219 184.429688 90.410156 192.515625 94.453125 C 205.230469 100.851562 218.28125 107.421875 232.175781 107.421875 C 234.617188 107.421875 236.976562 107.25 239.332031 106.832031 C 245.480469 105.734375 251.289062 103.125 256.257812 99.335938 C 264.003906 93.441406 268.804688 85.359375 269.480469 77.191406 C 269.984375 70.789062 268.046875 64.222656 266.195312 57.90625 C 264.425781 51.929688 262.574219 45.78125 262.742188 39.632812 C 262.828125 33.402344 265.015625 27.339844 269.058594 22.539062 C 271.667969 19.339844 275.121094 16.476562 278.40625 13.78125 C 282.363281 10.5 286.488281 7.214844 289.4375 2.917969 C 294.488281 -4.320312 296.089844 -14.34375 293.730469 -25.207031 C 292.636719 -30.847656 290.613281 -36.238281 287.835938 -41.203125 Z M 288.089844 1.910156 C 285.308594 5.949219 281.269531 9.234375 277.394531 12.433594 C 274.027344 15.214844 270.488281 18.078125 267.792969 21.359375 C 263.5 26.414062 261.140625 32.8125 261.058594 39.464844 C 260.972656 45.863281 262.828125 52.179688 264.59375 58.242188 C 266.53125 64.726562 268.300781 70.789062 267.792969 76.9375 C 267.121094 84.683594 262.574219 92.261719 255.246094 97.820312 C 250.53125 101.527344 244.972656 103.96875 239.078125 104.976562 C 222.914062 107.671875 208.511719 100.429688 193.273438 92.769531 C 185.105469 88.640625 176.597656 84.347656 167.839844 81.90625 C 163.714844 80.8125 159.503906 80.054688 155.292969 79.546875 C 151.589844 79.125 147.96875 78.453125 144.433594 77.609375 C 140.980469 76.769531 136.011719 76.09375 132.222656 77.777344 C 131.042969 78.367188 129.863281 79.042969 128.769531 79.882812 C 126.832031 81.316406 125.148438 82.496094 122.707031 82.242188 C 120.011719 81.90625 117.652344 79.296875 116.222656 77.359375 C 105.695312 63.632812 100.730469 44.769531 102.246094 24.308594 C 103.507812 6.625 110.496094 -10.132812 121.78125 -22.847656 C 131.886719 -34.132812 141.316406 -42.972656 150.664062 -49.710938 C 151.757812 -50.46875 152.851562 -51.226562 153.863281 -51.898438 C 158.242188 -54.679688 162.875 -57.121094 167.671875 -59.140625 C 172.472656 -61.160156 177.441406 -62.847656 182.492188 -64.191406 C 189.144531 -66.046875 195.628906 -67.8125 202.28125 -68.992188 C 208.765625 -70.085938 215.25 -70.761719 221.816406 -71.097656 C 224.597656 -71.265625 226.871094 -71.351562 228.890625 -71.351562 C 231.082031 -71.351562 233.101562 -71.351562 235.039062 -71.265625 C 238.742188 -71.097656 242.363281 -70.59375 245.902344 -69.75 C 251.121094 -68.488281 256.175781 -66.636719 260.972656 -64.277344 C 264.761719 -62.425781 268.382812 -60.152344 271.753906 -57.539062 C 273.269531 -56.363281 274.785156 -55.097656 276.132812 -53.75 C 280.171875 -49.878906 283.625 -45.414062 286.320312 -40.53125 C 289.015625 -35.730469 290.953125 -30.511719 292.128906 -25.121094 C 294.402344 -14.511719 292.972656 -4.996094 288.089844 1.910156 Z M 271.582031 -38.089844 C 269.308594 -42.46875 266.277344 -46.425781 262.65625 -49.792969 C 261.394531 -50.972656 260.046875 -52.066406 258.617188 -53.160156 C 255.5 -55.4375 252.214844 -57.371094 248.679688 -58.886719 C 244.214844 -60.824219 239.585938 -62.257812 234.871094 -63.183594 C 231.585938 -63.773438 228.300781 -64.109375 224.933594 -64.109375 C 223.164062 -64.109375 221.3125 -64.109375 219.460938 -64.023438 C 217.605469 -63.941406 215.417969 -63.773438 213.230469 -63.519531 C 207.417969 -62.929688 201.691406 -61.835938 195.964844 -60.402344 C 190.242188 -58.972656 184.515625 -56.953125 178.703125 -54.929688 C 174.660156 -53.582031 170.789062 -51.984375 167 -50.046875 C 163.210938 -48.109375 159.589844 -45.921875 156.136719 -43.476562 C 155.378906 -42.890625 154.453125 -42.300781 153.609375 -41.542969 C 144.09375 -33.792969 135.675781 -24.699219 129.359375 -17.542969 C 119.167969 -6.007812 113.695312 8.980469 113.863281 24.390625 C 114.117188 38.625 118.664062 51.507812 126.664062 60.601562 C 128.011719 62.117188 129.78125 63.886719 131.96875 64.390625 C 133.820312 64.726562 135.675781 64.558594 137.359375 63.800781 C 138.03125 63.546875 138.789062 63.296875 139.464844 63.128906 C 141.316406 62.707031 143.84375 62.875 147.125 63.632812 C 150.832031 64.304688 154.535156 64.644531 158.242188 64.644531 C 161.863281 64.726562 165.398438 65.0625 168.9375 65.652344 C 177.777344 67.589844 186.199219 72.472656 194.199219 77.273438 C 204.386719 83.253906 214.914062 89.398438 226.449219 89.398438 C 228.050781 89.398438 229.648438 89.316406 231.25 89.0625 C 236.722656 88.136719 241.859375 85.695312 245.984375 81.988281 C 252.300781 76.347656 255.921875 68.601562 255.5 61.105469 C 255.246094 56.222656 253.480469 51.421875 251.710938 46.707031 C 249.691406 41.234375 247.585938 35.589844 247.921875 29.867188 C 248.257812 24.8125 250.28125 20.265625 254.238281 15.886719 C 256.59375 13.445312 259.121094 11.171875 261.816406 9.066406 C 265.351562 6.203125 268.972656 3.171875 271.667969 -0.449219 C 276.300781 -6.679688 277.898438 -15.183594 276.382812 -24.363281 C 275.457031 -29.246094 273.855469 -33.878906 271.582031 -38.089844 Z M 270.238281 -1.460938 C 267.710938 1.992188 264.171875 4.941406 260.722656 7.804688 C 257.941406 9.992188 255.332031 12.265625 252.972656 14.792969 C 248.765625 19.425781 246.574219 24.308594 246.238281 29.78125 C 245.816406 35.929688 248.007812 41.738281 250.109375 47.296875 C 251.878906 52.097656 253.5625 56.558594 253.816406 61.191406 C 254.152344 68.179688 250.785156 75.421875 244.890625 80.726562 C 241.015625 84.261719 236.21875 86.621094 230.996094 87.464844 C 218.113281 89.484375 206.914062 82.832031 195.039062 75.84375 C 186.871094 71.042969 178.367188 66.074219 169.273438 64.136719 C 165.652344 63.464844 161.945312 63.128906 158.324219 63.042969 C 154.703125 62.957031 151.085938 62.621094 147.464844 61.863281 C 145.609375 61.441406 143.675781 61.191406 141.738281 61.105469 C 140.894531 61.105469 139.96875 61.191406 139.125 61.359375 C 138.367188 61.527344 137.527344 61.78125 136.851562 62.03125 C 135.335938 62.539062 134.074219 62.957031 132.390625 62.621094 C 130.707031 62.285156 129.105469 60.683594 127.925781 59.339844 C 120.179688 50.582031 115.800781 38.117188 115.550781 24.222656 C 115.378906 9.234375 120.769531 -5.25 130.621094 -16.53125 C 136.851562 -23.605469 145.273438 -32.617188 154.703125 -40.277344 C 155.546875 -40.953125 156.390625 -41.625 157.148438 -42.132812 C 160.515625 -44.574219 164.050781 -46.761719 167.757812 -48.613281 C 171.460938 -50.46875 175.335938 -52.066406 179.292969 -53.414062 C 185.105469 -55.4375 190.746094 -57.371094 196.386719 -58.804688 C 201.945312 -60.234375 207.671875 -61.246094 213.398438 -61.835938 C 215.585938 -62.089844 217.605469 -62.257812 219.542969 -62.339844 C 221.480469 -62.425781 223.25 -62.507812 224.933594 -62.425781 C 228.132812 -62.425781 231.417969 -62.089844 234.617188 -61.5 C 239.25 -60.65625 243.796875 -59.226562 248.089844 -57.289062 C 251.457031 -55.773438 254.742188 -53.917969 257.691406 -51.730469 C 259.035156 -50.71875 260.382812 -49.625 261.5625 -48.53125 C 265.015625 -45.332031 267.964844 -41.457031 270.152344 -37.332031 C 272.339844 -33.203125 273.941406 -28.742188 274.699219 -24.109375 C 276.132812 -15.351562 274.617188 -7.355469 270.238281 -1.460938 Z M 247.921875 -44.742188 C 246.828125 -45.75 245.5625 -46.679688 244.386719 -47.519531 C 235.289062 -53.835938 223.082031 -56.53125 209.945312 -55.097656 C 197.144531 -53.75 184.597656 -48.53125 175.167969 -44.066406 C 168.597656 -41.121094 162.535156 -37.078125 157.316406 -32.027344 C 150.328125 -25.289062 143.757812 -17.796875 137.949219 -11.144531 C 128.683594 -0.617188 124.558594 12.6875 127 24.5625 C 129.441406 36.601562 138.957031 46.203125 150.074219 47.96875 C 153.609375 48.390625 157.148438 48.390625 160.683594 48.054688 C 163.882812 47.71875 167.167969 47.71875 170.367188 48.054688 C 179.039062 49.148438 186.621094 54.707031 194.03125 60.011719 C 202.113281 65.90625 210.449219 71.882812 220.132812 71.882812 C 221.144531 71.882812 222.15625 71.800781 223.164062 71.714844 C 235.542969 69.527344 243.796875 57.820312 241.605469 45.445312 C 241.605469 45.359375 241.605469 45.359375 241.605469 45.277344 C 240.847656 41.738281 239.082031 38.371094 237.480469 35.085938 C 235.039062 30.117188 232.679688 25.488281 233.269531 20.433594 C 234.113281 13.867188 239.417969 9.570312 244.972656 4.941406 C 248.175781 2.332031 251.457031 -0.363281 253.984375 -3.5625 C 263.585938 -16.363281 258.699219 -35.226562 247.921875 -44.742188 Z M 252.46875 -4.742188 C 250.109375 -1.710938 246.910156 0.898438 243.796875 3.507812 C 238.152344 8.054688 232.429688 12.855469 231.5 20.097656 C 230.828125 25.65625 233.355469 30.792969 235.878906 35.761719 C 237.480469 38.960938 239.164062 42.242188 239.921875 45.613281 C 241.941406 57.0625 234.363281 67.925781 222.914062 70.03125 C 212.640625 71.378906 204.050781 65.234375 195.039062 58.664062 C 187.460938 53.191406 179.714844 47.550781 170.621094 46.453125 C 169.1875 46.285156 167.757812 46.203125 166.324219 46.203125 C 164.390625 46.203125 162.453125 46.285156 160.597656 46.453125 C 157.230469 46.792969 153.777344 46.792969 150.328125 46.371094 C 140.054688 44.769531 130.957031 35.507812 128.601562 24.308594 C 126.242188 13.109375 130.285156 0.226562 139.210938 -9.878906 C 145.019531 -16.449219 151.589844 -23.941406 158.496094 -30.59375 C 163.632812 -35.480469 169.527344 -39.4375 175.925781 -42.300781 C 185.273438 -46.679688 197.652344 -51.816406 210.195312 -53.160156 C 222.996094 -54.507812 234.785156 -51.984375 243.542969 -45.921875 C 244.722656 -45.078125 245.902344 -44.234375 246.910156 -43.226562 C 257.015625 -34.46875 261.730469 -16.699219 252.46875 -4.742188 Z M 252.46875 -4.742188 " fill-opacity="1" fill-rule="nonzero"/></g></g></g></g></svg>